<mxfile host="app.diagrams.net" agent="Mozilla/5.0 (Windows NT 10.0; Win64; x64; rv:132.0) Gecko/20100101 Firefox/132.0" scale="1" border="10" version="24.8.6">
  <diagram name="Page-1" id="Po1kImlqnJe6HbgGYkMP">
    <mxGraphModel dx="5027" dy="4570" grid="1" gridSize="10" guides="1" tooltips="1" connect="1" arrows="1" fold="1" page="1" pageScale="1" pageWidth="827" pageHeight="1169" math="0" shadow="0">
      <root>
        <mxCell id="0" />
        <mxCell id="1" parent="0" />
        <mxCell id="-fQBZmmFNFToeFe26IZ8-32" style="rounded=0;orthogonalLoop=1;jettySize=auto;html=1;fontSize=13;startSize=8;endSize=8;startArrow=diamondThin;startFill=0;endArrow=none;endFill=0;edgeStyle=orthogonalEdgeStyle;" parent="1" source="VGiHOSESfFHdLOJ1oZRl-1" target="VGiHOSESfFHdLOJ1oZRl-13" edge="1">
          <mxGeometry relative="1" as="geometry">
            <mxPoint x="-215" y="1037" as="targetPoint" />
            <mxPoint x="555" y="449.0625" as="sourcePoint" />
            <Array as="points">
              <mxPoint x="340" y="-1010" />
            </Array>
          </mxGeometry>
        </mxCell>
        <mxCell id="VGiHOSESfFHdLOJ1oZRl-1" value="Tournament" style="swimlane;fontStyle=0;align=center;verticalAlign=top;childLayout=stackLayout;horizontal=1;startSize=35;horizontalStack=0;resizeParent=1;resizeLast=0;collapsible=1;marginBottom=0;rounded=0;shadow=0;strokeWidth=1;fontSize=18;" parent="1" vertex="1">
          <mxGeometry x="490" y="-1270" width="190" height="300" as="geometry">
            <mxRectangle x="230" y="140" width="160" height="26" as="alternateBounds" />
          </mxGeometry>
        </mxCell>
        <mxCell id="VGiHOSESfFHdLOJ1oZRl-2" value="- idTournament: Integer" style="text;align=left;verticalAlign=top;spacingLeft=4;spacingRight=4;overflow=hidden;rotatable=0;points=[[0,0.5],[1,0.5]];portConstraint=eastwest;fontSize=13;" parent="VGiHOSESfFHdLOJ1oZRl-1" vertex="1">
          <mxGeometry y="35" width="190" height="26" as="geometry" />
        </mxCell>
        <mxCell id="5eNANyw-pt9bPJjnBM40-105" value="- name: String" style="text;align=left;verticalAlign=top;spacingLeft=4;spacingRight=4;overflow=hidden;rotatable=0;points=[[0,0.5],[1,0.5]];portConstraint=eastwest;rounded=0;shadow=0;html=0;fontSize=13;" parent="VGiHOSESfFHdLOJ1oZRl-1" vertex="1">
          <mxGeometry y="61" width="190" height="26" as="geometry" />
        </mxCell>
        <mxCell id="VGiHOSESfFHdLOJ1oZRl-3" value="- location: String" style="text;align=left;verticalAlign=top;spacingLeft=4;spacingRight=4;overflow=hidden;rotatable=0;points=[[0,0.5],[1,0.5]];portConstraint=eastwest;rounded=0;shadow=0;html=0;fontSize=13;" parent="VGiHOSESfFHdLOJ1oZRl-1" vertex="1">
          <mxGeometry y="87" width="190" height="26" as="geometry" />
        </mxCell>
        <mxCell id="VGiHOSESfFHdLOJ1oZRl-4" value="- surface: ESurface" style="text;align=left;verticalAlign=top;spacingLeft=4;spacingRight=4;overflow=hidden;rotatable=0;points=[[0,0.5],[1,0.5]];portConstraint=eastwest;rounded=0;shadow=0;html=0;fontSize=13;" parent="VGiHOSESfFHdLOJ1oZRl-1" vertex="1">
          <mxGeometry y="113" width="190" height="26" as="geometry" />
        </mxCell>
        <mxCell id="VGiHOSESfFHdLOJ1oZRl-5" value="- startingDate: LocalDate" style="text;align=left;verticalAlign=top;spacingLeft=4;spacingRight=4;overflow=hidden;rotatable=0;points=[[0,0.5],[1,0.5]];portConstraint=eastwest;rounded=0;shadow=0;html=0;fontSize=13;" parent="VGiHOSESfFHdLOJ1oZRl-1" vertex="1">
          <mxGeometry y="139" width="190" height="26" as="geometry" />
        </mxCell>
        <mxCell id="VGiHOSESfFHdLOJ1oZRl-6" value="- endingDate: LocalDate" style="text;align=left;verticalAlign=top;spacingLeft=4;spacingRight=4;overflow=hidden;rotatable=0;points=[[0,0.5],[1,0.5]];portConstraint=eastwest;rounded=0;shadow=0;html=0;fontSize=13;" parent="VGiHOSESfFHdLOJ1oZRl-1" vertex="1">
          <mxGeometry y="165" width="190" height="26" as="geometry" />
        </mxCell>
        <mxCell id="VGiHOSESfFHdLOJ1oZRl-8" value="- players: Set&lt;Player&gt;" style="text;align=left;verticalAlign=top;spacingLeft=4;spacingRight=4;overflow=hidden;rotatable=0;points=[[0,0.5],[1,0.5]];portConstraint=eastwest;rounded=0;shadow=0;html=0;fontSize=13;" parent="VGiHOSESfFHdLOJ1oZRl-1" vertex="1">
          <mxGeometry y="191" width="190" height="26" as="geometry" />
        </mxCell>
        <mxCell id="VGiHOSESfFHdLOJ1oZRl-7" value="- rounds: List&lt;Round&gt;" style="text;align=left;verticalAlign=top;spacingLeft=4;spacingRight=4;overflow=hidden;rotatable=0;points=[[0,0.5],[1,0.5]];portConstraint=eastwest;rounded=0;shadow=0;html=0;fontSize=13;" parent="VGiHOSESfFHdLOJ1oZRl-1" vertex="1">
          <mxGeometry y="217" width="190" height="26" as="geometry" />
        </mxCell>
        <mxCell id="5eNANyw-pt9bPJjnBM40-106" value="- status: ETournamentStatus" style="text;align=left;verticalAlign=top;spacingLeft=4;spacingRight=4;overflow=hidden;rotatable=0;points=[[0,0.5],[1,0.5]];portConstraint=eastwest;rounded=0;shadow=0;html=0;fontSize=13;" parent="VGiHOSESfFHdLOJ1oZRl-1" vertex="1">
          <mxGeometry y="243" width="190" height="26" as="geometry" />
        </mxCell>
        <mxCell id="VGiHOSESfFHdLOJ1oZRl-9" value="Result" style="swimlane;fontStyle=0;align=center;verticalAlign=top;childLayout=stackLayout;horizontal=1;startSize=35;horizontalStack=0;resizeParent=1;resizeLast=0;collapsible=1;marginBottom=0;rounded=0;shadow=0;strokeWidth=1;fontSize=17;" parent="1" vertex="1">
          <mxGeometry x="-90" y="170" width="310" height="210" as="geometry">
            <mxRectangle x="130" y="380" width="160" height="26" as="alternateBounds" />
          </mxGeometry>
        </mxCell>
        <mxCell id="VGiHOSESfFHdLOJ1oZRl-12" value="- setsScore: List&lt;SetScore&gt;" style="text;align=left;verticalAlign=top;spacingLeft=4;spacingRight=4;overflow=hidden;rotatable=0;points=[[0,0.5],[1,0.5]];portConstraint=eastwest;fontSize=13;" parent="VGiHOSESfFHdLOJ1oZRl-9" vertex="1">
          <mxGeometry y="35" width="310" height="35" as="geometry" />
        </mxCell>
        <mxCell id="5eNANyw-pt9bPJjnBM40-108" value="" style="edgeStyle=none;orthogonalLoop=1;jettySize=auto;html=1;rounded=0;exitX=0;exitY=1;exitDx=0;exitDy=0;endArrow=none;endFill=0;entryX=1;entryY=1;entryDx=0;entryDy=0;entryPerimeter=0;" parent="VGiHOSESfFHdLOJ1oZRl-9" target="VGiHOSESfFHdLOJ1oZRl-12" edge="1">
          <mxGeometry width="80" relative="1" as="geometry">
            <mxPoint y="70.00000000000023" as="sourcePoint" />
            <mxPoint x="175" y="70.00000000000023" as="targetPoint" />
            <Array as="points">
              <mxPoint x="87.5" y="70" />
            </Array>
          </mxGeometry>
        </mxCell>
        <mxCell id="5eNANyw-pt9bPJjnBM40-109" value="+ Resut()" style="text;align=left;verticalAlign=top;spacingLeft=4;spacingRight=4;overflow=hidden;rotatable=0;points=[[0,0.5],[1,0.5]];portConstraint=eastwest;fontSize=13;" parent="VGiHOSESfFHdLOJ1oZRl-9" vertex="1">
          <mxGeometry y="70" width="310" height="30" as="geometry" />
        </mxCell>
        <mxCell id="5eNANyw-pt9bPJjnBM40-110" value="+ Resut(setsScore: List&lt;SetScore&gt;)" style="text;align=left;verticalAlign=top;spacingLeft=4;spacingRight=4;overflow=hidden;rotatable=0;points=[[0,0.5],[1,0.5]];portConstraint=eastwest;fontSize=13;" parent="VGiHOSESfFHdLOJ1oZRl-9" vertex="1">
          <mxGeometry y="100" width="310" height="30" as="geometry" />
        </mxCell>
        <mxCell id="5eNANyw-pt9bPJjnBM40-111" value="- validateResult(setsScore: List&lt;SetScore&gt;): void" style="text;align=left;verticalAlign=top;spacingLeft=4;spacingRight=4;overflow=hidden;rotatable=0;points=[[0,0.5],[1,0.5]];portConstraint=eastwest;fontSize=13;" parent="VGiHOSESfFHdLOJ1oZRl-9" vertex="1">
          <mxGeometry y="130" width="310" height="30" as="geometry" />
        </mxCell>
        <mxCell id="5eNANyw-pt9bPJjnBM40-112" value="+ Resut(setsScore: List&lt;SetScore&gt;)" style="text;align=left;verticalAlign=top;spacingLeft=4;spacingRight=4;overflow=hidden;rotatable=0;points=[[0,0.5],[1,0.5]];portConstraint=eastwest;fontSize=13;" parent="VGiHOSESfFHdLOJ1oZRl-9" vertex="1">
          <mxGeometry y="160" width="310" height="30" as="geometry" />
        </mxCell>
        <mxCell id="VGiHOSESfFHdLOJ1oZRl-13" value="Player" style="swimlane;fontStyle=0;align=center;verticalAlign=top;childLayout=stackLayout;horizontal=1;startSize=30;horizontalStack=0;resizeParent=1;resizeLast=0;collapsible=1;marginBottom=0;rounded=0;shadow=0;strokeWidth=1;fontSize=17;" parent="1" vertex="1">
          <mxGeometry x="220" y="-140" width="160" height="220" as="geometry">
            <mxRectangle x="340" y="380" width="170" height="26" as="alternateBounds" />
          </mxGeometry>
        </mxCell>
        <mxCell id="5eNANyw-pt9bPJjnBM40-107" value="- idPlayer: Integer" style="text;align=left;verticalAlign=top;spacingLeft=4;spacingRight=4;overflow=hidden;rotatable=0;points=[[0,0.5],[1,0.5]];portConstraint=eastwest;fontSize=13;" parent="VGiHOSESfFHdLOJ1oZRl-13" vertex="1">
          <mxGeometry y="30" width="160" height="26" as="geometry" />
        </mxCell>
        <mxCell id="VGiHOSESfFHdLOJ1oZRl-35" value="- dni: String" style="text;align=left;verticalAlign=top;spacingLeft=4;spacingRight=4;overflow=hidden;rotatable=0;points=[[0,0.5],[1,0.5]];portConstraint=eastwest;fontSize=13;" parent="VGiHOSESfFHdLOJ1oZRl-13" vertex="1">
          <mxGeometry y="56" width="160" height="26" as="geometry" />
        </mxCell>
        <mxCell id="VGiHOSESfFHdLOJ1oZRl-36" value="- name: String" style="text;align=left;verticalAlign=top;spacingLeft=4;spacingRight=4;overflow=hidden;rotatable=0;points=[[0,0.5],[1,0.5]];portConstraint=eastwest;fontSize=13;" parent="VGiHOSESfFHdLOJ1oZRl-13" vertex="1">
          <mxGeometry y="82" width="160" height="26" as="geometry" />
        </mxCell>
        <mxCell id="VGiHOSESfFHdLOJ1oZRl-37" value="- lastName: String" style="text;align=left;verticalAlign=top;spacingLeft=4;spacingRight=4;overflow=hidden;rotatable=0;points=[[0,0.5],[1,0.5]];portConstraint=eastwest;fontSize=13;" parent="VGiHOSESfFHdLOJ1oZRl-13" vertex="1">
          <mxGeometry y="108" width="160" height="26" as="geometry" />
        </mxCell>
        <mxCell id="VGiHOSESfFHdLOJ1oZRl-16" value="- nationality: String" style="text;align=left;verticalAlign=top;spacingLeft=4;spacingRight=4;overflow=hidden;rotatable=0;points=[[0,0.5],[1,0.5]];portConstraint=eastwest;fontSize=13;" parent="VGiHOSESfFHdLOJ1oZRl-13" vertex="1">
          <mxGeometry y="134" width="160" height="26" as="geometry" />
        </mxCell>
        <mxCell id="VGiHOSESfFHdLOJ1oZRl-39" value="- dateOfBirth:LocalDate" style="text;align=left;verticalAlign=top;spacingLeft=4;spacingRight=4;overflow=hidden;rotatable=0;points=[[0,0.5],[1,0.5]];portConstraint=eastwest;fontSize=13;" parent="VGiHOSESfFHdLOJ1oZRl-13" vertex="1">
          <mxGeometry y="160" width="160" height="26" as="geometry" />
        </mxCell>
        <mxCell id="VGiHOSESfFHdLOJ1oZRl-15" value="- points:Integer" style="text;align=left;verticalAlign=top;spacingLeft=4;spacingRight=4;overflow=hidden;rotatable=0;points=[[0,0.5],[1,0.5]];portConstraint=eastwest;fontSize=13;" parent="VGiHOSESfFHdLOJ1oZRl-13" vertex="1">
          <mxGeometry y="186" width="160" height="26" as="geometry" />
        </mxCell>
        <mxCell id="5eNANyw-pt9bPJjnBM40-152" style="rounded=0;orthogonalLoop=1;jettySize=auto;html=1;endArrow=none;endFill=0;startArrow=open;startFill=0;edgeStyle=orthogonalEdgeStyle;" parent="1" source="VGiHOSESfFHdLOJ1oZRl-29" target="VGiHOSESfFHdLOJ1oZRl-25" edge="1">
          <mxGeometry relative="1" as="geometry">
            <Array as="points">
              <mxPoint x="1330" y="-985" />
              <mxPoint x="1330" y="-495" />
            </Array>
          </mxGeometry>
        </mxCell>
        <mxCell id="5eNANyw-pt9bPJjnBM40-155" style="rounded=0;orthogonalLoop=1;jettySize=auto;html=1;endArrow=open;endFill=0;edgeStyle=orthogonalEdgeStyle;" parent="1" source="VGiHOSESfFHdLOJ1oZRl-29" target="VGiHOSESfFHdLOJ1oZRl-1" edge="1">
          <mxGeometry relative="1" as="geometry">
            <Array as="points">
              <mxPoint x="1570" y="-1160" />
            </Array>
          </mxGeometry>
        </mxCell>
        <mxCell id="VGiHOSESfFHdLOJ1oZRl-29" value="MatchService" style="swimlane;fontStyle=0;align=center;verticalAlign=top;childLayout=stackLayout;horizontal=1;startSize=40;horizontalStack=0;resizeParent=1;resizeLast=0;collapsible=1;marginBottom=0;rounded=0;shadow=0;strokeWidth=1;fontSize=17;movable=1;resizable=1;rotatable=1;deletable=1;editable=1;locked=0;connectable=1;" parent="1" vertex="1">
          <mxGeometry x="1380" y="-1120" width="360" height="270" as="geometry">
            <mxRectangle x="230" y="140" width="160" height="26" as="alternateBounds" />
          </mxGeometry>
        </mxCell>
        <mxCell id="VGiHOSESfFHdLOJ1oZRl-27" value="- tournament:Tournament" style="text;align=left;verticalAlign=top;spacingLeft=4;spacingRight=4;overflow=hidden;rotatable=0;points=[[0,0.5],[1,0.5]];portConstraint=eastwest;rounded=0;shadow=0;html=0;fontSize=13;" parent="VGiHOSESfFHdLOJ1oZRl-29" vertex="1">
          <mxGeometry y="40" width="360" height="30" as="geometry" />
        </mxCell>
        <mxCell id="Emz4GKHIFxmzqfznbhwv-18" value="" style="endArrow=none;html=1;rounded=0;exitX=-0.001;exitY=1.017;exitDx=0;exitDy=0;fontSize=13;entryX=1.006;entryY=0.996;entryDx=0;entryDy=0;entryPerimeter=0;exitPerimeter=0;" parent="VGiHOSESfFHdLOJ1oZRl-29" source="VGiHOSESfFHdLOJ1oZRl-27" target="VGiHOSESfFHdLOJ1oZRl-27" edge="1">
          <mxGeometry width="50" height="50" relative="1" as="geometry">
            <mxPoint y="70" as="sourcePoint" />
            <mxPoint x="240" y="70" as="targetPoint" />
          </mxGeometry>
        </mxCell>
        <mxCell id="Emz4GKHIFxmzqfznbhwv-17" value="+ MatchService(Tournament tournament)&#xa;" style="text;align=left;verticalAlign=top;spacingLeft=4;spacingRight=4;overflow=hidden;rotatable=0;points=[[0,0.5],[1,0.5]];portConstraint=eastwest;rounded=0;shadow=0;html=0;fontSize=13;" parent="VGiHOSESfFHdLOJ1oZRl-29" vertex="1">
          <mxGeometry y="70" width="360" height="26" as="geometry" />
        </mxCell>
        <mxCell id="-fQBZmmFNFToeFe26IZ8-5" value="+ getMatchesByPlayer(Integer idPlayer):List&lt;Match&gt;" style="text;align=left;verticalAlign=top;spacingLeft=4;spacingRight=4;overflow=hidden;rotatable=0;points=[[0,0.5],[1,0.5]];portConstraint=eastwest;rounded=0;shadow=0;html=0;fontSize=13;" parent="VGiHOSESfFHdLOJ1oZRl-29" vertex="1">
          <mxGeometry y="96" width="360" height="28" as="geometry" />
        </mxCell>
        <mxCell id="Emz4GKHIFxmzqfznbhwv-2" value="+ getWinner(Match match):Player&#xa;" style="text;align=left;verticalAlign=top;spacingLeft=4;spacingRight=4;overflow=hidden;rotatable=0;points=[[0,0.5],[1,0.5]];portConstraint=eastwest;fontSize=13;" parent="VGiHOSESfFHdLOJ1oZRl-29" vertex="1">
          <mxGeometry y="124" width="360" height="24" as="geometry" />
        </mxCell>
        <mxCell id="Emz4GKHIFxmzqfznbhwv-4" value="+ assignResult(Integer matchId, Result result):void" style="text;align=left;verticalAlign=top;spacingLeft=4;spacingRight=4;overflow=hidden;rotatable=0;points=[[0,0.5],[1,0.5]];portConstraint=eastwest;fontSize=13;" parent="VGiHOSESfFHdLOJ1oZRl-29" vertex="1">
          <mxGeometry y="148" width="360" height="24" as="geometry" />
        </mxCell>
        <mxCell id="Emz4GKHIFxmzqfznbhwv-3" value="+ modifyResult(Integer matchId, Result result):void&#xa;" style="text;align=left;verticalAlign=top;spacingLeft=4;spacingRight=4;overflow=hidden;rotatable=0;points=[[0,0.5],[1,0.5]];portConstraint=eastwest;fontSize=13;" parent="VGiHOSESfFHdLOJ1oZRl-29" vertex="1">
          <mxGeometry y="172" width="360" height="26" as="geometry" />
        </mxCell>
        <mxCell id="Emz4GKHIFxmzqfznbhwv-5" value="+ Match findMatchById(Integer matchId)&#xa;" style="text;align=left;verticalAlign=top;spacingLeft=4;spacingRight=4;overflow=hidden;rotatable=0;points=[[0,0.5],[1,0.5]];portConstraint=eastwest;fontSize=13;" parent="VGiHOSESfFHdLOJ1oZRl-29" vertex="1">
          <mxGeometry y="198" width="360" height="24" as="geometry" />
        </mxCell>
        <mxCell id="Emz4GKHIFxmzqfznbhwv-6" value="- validateResult(Integer matchId, Result result, &#xa;   boolean isAssigning):void  &#xa;" style="text;align=left;verticalAlign=top;spacingLeft=4;spacingRight=4;overflow=hidden;rotatable=0;points=[[0,0.5],[1,0.5]];portConstraint=eastwest;fontSize=13;" parent="VGiHOSESfFHdLOJ1oZRl-29" vertex="1">
          <mxGeometry y="222" width="360" height="38" as="geometry" />
        </mxCell>
        <mxCell id="VGiHOSESfFHdLOJ1oZRl-31" style="rounded=0;orthogonalLoop=1;jettySize=auto;html=1;dashed=1;endArrow=open;endFill=0;fontSize=13;edgeStyle=orthogonalEdgeStyle;" parent="1" source="VGiHOSESfFHdLOJ1oZRl-33" target="VGiHOSESfFHdLOJ1oZRl-13" edge="1">
          <mxGeometry relative="1" as="geometry">
            <mxPoint x="-1030" y="342" as="targetPoint" />
            <Array as="points">
              <mxPoint x="310" y="120" />
            </Array>
          </mxGeometry>
        </mxCell>
        <mxCell id="VGiHOSESfFHdLOJ1oZRl-32" style="rounded=0;orthogonalLoop=1;jettySize=auto;html=1;endArrow=open;endFill=0;fontSize=13;edgeStyle=orthogonalEdgeStyle;" parent="1" source="VGiHOSESfFHdLOJ1oZRl-33" target="VGiHOSESfFHdLOJ1oZRl-65" edge="1">
          <mxGeometry relative="1" as="geometry">
            <Array as="points">
              <mxPoint x="730" y="40" />
              <mxPoint x="730" y="40" />
            </Array>
          </mxGeometry>
        </mxCell>
        <mxCell id="5eNANyw-pt9bPJjnBM40-159" style="rounded=0;orthogonalLoop=1;jettySize=auto;html=1;endArrow=open;endFill=0;edgeStyle=orthogonalEdgeStyle;" parent="1" source="VGiHOSESfFHdLOJ1oZRl-33" target="VGiHOSESfFHdLOJ1oZRl-25" edge="1">
          <mxGeometry relative="1" as="geometry" />
        </mxCell>
        <mxCell id="VGiHOSESfFHdLOJ1oZRl-33" value="PlayerService" style="swimlane;fontStyle=0;align=center;verticalAlign=top;childLayout=stackLayout;horizontal=1;startSize=40;horizontalStack=0;resizeParent=1;resizeLast=0;collapsible=1;marginBottom=0;rounded=0;shadow=0;strokeWidth=1;fontSize=18;movable=1;resizable=1;rotatable=1;deletable=1;editable=1;locked=0;connectable=1;" parent="1" vertex="1">
          <mxGeometry x="859.5" y="10" width="375" height="370" as="geometry">
            <mxRectangle x="230" y="140" width="160" height="26" as="alternateBounds" />
          </mxGeometry>
        </mxCell>
        <mxCell id="-fQBZmmFNFToeFe26IZ8-6" value="- playerRepository: PlayerRepositoryImpl" style="text;align=left;verticalAlign=top;spacingLeft=4;spacingRight=4;overflow=hidden;rotatable=0;points=[[0,0.5],[1,0.5]];portConstraint=eastwest;fontSize=13;" parent="VGiHOSESfFHdLOJ1oZRl-33" vertex="1">
          <mxGeometry y="40" width="375" height="30" as="geometry" />
        </mxCell>
        <mxCell id="Emz4GKHIFxmzqfznbhwv-16" value="" style="endArrow=none;html=1;rounded=0;fontSize=13;entryX=0.995;entryY=1.017;entryDx=0;entryDy=0;entryPerimeter=0;exitX=0.007;exitY=1.067;exitDx=0;exitDy=0;exitPerimeter=0;" parent="VGiHOSESfFHdLOJ1oZRl-33" source="5eNANyw-pt9bPJjnBM40-59" target="5eNANyw-pt9bPJjnBM40-59" edge="1">
          <mxGeometry width="50" height="50" relative="1" as="geometry">
            <mxPoint x="20" y="280" as="sourcePoint" />
            <mxPoint x="240" y="80" as="targetPoint" />
          </mxGeometry>
        </mxCell>
        <mxCell id="5eNANyw-pt9bPJjnBM40-59" value="- tournamentService:TournamentService" style="text;align=left;verticalAlign=top;spacingLeft=4;spacingRight=4;overflow=hidden;rotatable=0;points=[[0,0.5],[1,0.5]];portConstraint=eastwest;fontSize=13;" parent="VGiHOSESfFHdLOJ1oZRl-33" vertex="1">
          <mxGeometry y="70" width="375" height="30" as="geometry" />
        </mxCell>
        <mxCell id="Emz4GKHIFxmzqfznbhwv-15" value="+ PlayerService(playerRepository: PlayerRepositoryImp,&#xa;   tournamentService: TournamentService)" style="text;align=left;verticalAlign=top;spacingLeft=4;spacingRight=4;overflow=hidden;rotatable=0;points=[[0,0.5],[1,0.5]];portConstraint=eastwest;fontSize=13;" parent="VGiHOSESfFHdLOJ1oZRl-33" vertex="1">
          <mxGeometry y="100" width="375" height="40" as="geometry" />
        </mxCell>
        <mxCell id="5eNANyw-pt9bPJjnBM40-84" value="+ addPlayer(player:Player):Integer" style="text;align=left;verticalAlign=top;spacingLeft=4;spacingRight=4;overflow=hidden;rotatable=0;points=[[0,0.5],[1,0.5]];portConstraint=eastwest;fontSize=13;" parent="VGiHOSESfFHdLOJ1oZRl-33" vertex="1">
          <mxGeometry y="140" width="375" height="24" as="geometry" />
        </mxCell>
        <mxCell id="-fQBZmmFNFToeFe26IZ8-7" value="+ findPlayerById(id:Integer):Player" style="text;align=left;verticalAlign=top;spacingLeft=4;spacingRight=4;overflow=hidden;rotatable=0;points=[[0,0.5],[1,0.5]];portConstraint=eastwest;fontSize=13;" parent="VGiHOSESfFHdLOJ1oZRl-33" vertex="1">
          <mxGeometry y="164" width="375" height="24" as="geometry" />
        </mxCell>
        <mxCell id="-fQBZmmFNFToeFe26IZ8-8" value="+ updatePlayer(modifiedPlayer:Player):void" style="text;align=left;verticalAlign=top;spacingLeft=4;spacingRight=4;overflow=hidden;rotatable=0;points=[[0,0.5],[1,0.5]];portConstraint=eastwest;fontSize=13;" parent="VGiHOSESfFHdLOJ1oZRl-33" vertex="1">
          <mxGeometry y="188" width="375" height="26" as="geometry" />
        </mxCell>
        <mxCell id="-fQBZmmFNFToeFe26IZ8-9" value="+ deletePlayer(id:Integer):void" style="text;align=left;verticalAlign=top;spacingLeft=4;spacingRight=4;overflow=hidden;rotatable=0;points=[[0,0.5],[1,0.5]];portConstraint=eastwest;fontSize=13;" parent="VGiHOSESfFHdLOJ1oZRl-33" vertex="1">
          <mxGeometry y="214" width="375" height="26" as="geometry" />
        </mxCell>
        <mxCell id="5eNANyw-pt9bPJjnBM40-78" value="+ getAllPlayers(id:Integer):List&lt;Player&gt;" style="text;align=left;verticalAlign=top;spacingLeft=4;spacingRight=4;overflow=hidden;rotatable=0;points=[[0,0.5],[1,0.5]];portConstraint=eastwest;fontSize=13;" parent="VGiHOSESfFHdLOJ1oZRl-33" vertex="1">
          <mxGeometry y="240" width="375" height="26" as="geometry" />
        </mxCell>
        <mxCell id="5eNANyw-pt9bPJjnBM40-60" value="+ getMatchesWon(id:Integer):Integer" style="text;align=left;verticalAlign=top;spacingLeft=4;spacingRight=4;overflow=hidden;rotatable=0;points=[[0,0.5],[1,0.5]];portConstraint=eastwest;fontSize=13;" parent="VGiHOSESfFHdLOJ1oZRl-33" vertex="1">
          <mxGeometry y="266" width="375" height="24" as="geometry" />
        </mxCell>
        <mxCell id="5eNANyw-pt9bPJjnBM40-61" value="+ showStatsByPlayer(id:Integer):String" style="text;align=left;verticalAlign=top;spacingLeft=4;spacingRight=4;overflow=hidden;rotatable=0;points=[[0,0.5],[1,0.5]];portConstraint=eastwest;fontSize=13;" parent="VGiHOSESfFHdLOJ1oZRl-33" vertex="1">
          <mxGeometry y="290" width="375" height="26" as="geometry" />
        </mxCell>
        <mxCell id="5eNANyw-pt9bPJjnBM40-77" value="+ getPlayerRankings():List&lt;Player&gt;" style="text;align=left;verticalAlign=top;spacingLeft=4;spacingRight=4;overflow=hidden;rotatable=0;points=[[0,0.5],[1,0.5]];portConstraint=eastwest;fontSize=13;" parent="VGiHOSESfFHdLOJ1oZRl-33" vertex="1">
          <mxGeometry y="316" width="375" height="26" as="geometry" />
        </mxCell>
        <mxCell id="5eNANyw-pt9bPJjnBM40-63" value="+ showPlayerRankings(id:Integer):String" style="text;align=left;verticalAlign=top;spacingLeft=4;spacingRight=4;overflow=hidden;rotatable=0;points=[[0,0.5],[1,0.5]];portConstraint=eastwest;fontSize=13;" parent="VGiHOSESfFHdLOJ1oZRl-33" vertex="1">
          <mxGeometry y="342" width="375" height="24" as="geometry" />
        </mxCell>
        <mxCell id="VGiHOSESfFHdLOJ1oZRl-43" style="rounded=0;orthogonalLoop=1;jettySize=auto;html=1;endArrow=open;endFill=0;fontSize=13;edgeStyle=orthogonalEdgeStyle;" parent="1" source="VGiHOSESfFHdLOJ1oZRl-25" target="VGiHOSESfFHdLOJ1oZRl-1" edge="1">
          <mxGeometry relative="1" as="geometry">
            <mxPoint x="620" y="161" as="sourcePoint" />
            <mxPoint x="620" y="211" as="targetPoint" />
            <Array as="points">
              <mxPoint x="780" y="-770" />
              <mxPoint x="780" y="-1020" />
            </Array>
          </mxGeometry>
        </mxCell>
        <mxCell id="5eNANyw-pt9bPJjnBM40-177" value="1" style="edgeLabel;html=1;align=center;verticalAlign=middle;resizable=0;points=[];" parent="VGiHOSESfFHdLOJ1oZRl-43" vertex="1" connectable="0">
          <mxGeometry x="-0.9221" y="1" relative="1" as="geometry">
            <mxPoint x="5" as="offset" />
          </mxGeometry>
        </mxCell>
        <mxCell id="5eNANyw-pt9bPJjnBM40-178" value="N" style="edgeLabel;html=1;align=center;verticalAlign=middle;resizable=0;points=[];" parent="VGiHOSESfFHdLOJ1oZRl-43" vertex="1" connectable="0">
          <mxGeometry x="0.923" y="1" relative="1" as="geometry">
            <mxPoint x="5" as="offset" />
          </mxGeometry>
        </mxCell>
        <mxCell id="VGiHOSESfFHdLOJ1oZRl-45" value="&lt;abstract&gt;&#xa;Round" style="swimlane;fontStyle=0;align=center;verticalAlign=top;childLayout=stackLayout;horizontal=1;startSize=60;horizontalStack=0;resizeParent=1;resizeLast=0;collapsible=1;marginBottom=0;rounded=0;shadow=0;strokeWidth=1;fontSize=18;" parent="1" vertex="1">
          <mxGeometry x="-105" y="-442" width="310" height="210" as="geometry">
            <mxRectangle x="550" y="140" width="160" height="26" as="alternateBounds" />
          </mxGeometry>
        </mxCell>
        <mxCell id="VGiHOSESfFHdLOJ1oZRl-47" value="- matches: List&lt;Match&gt;" style="text;align=left;verticalAlign=top;spacingLeft=4;spacingRight=4;overflow=hidden;rotatable=0;points=[[0,0.5],[1,0.5]];portConstraint=eastwest;rounded=0;shadow=0;html=0;fontSize=13;" parent="VGiHOSESfFHdLOJ1oZRl-45" vertex="1">
          <mxGeometry y="60" width="310" height="26" as="geometry" />
        </mxCell>
        <mxCell id="VGiHOSESfFHdLOJ1oZRl-48" value="- givenPoints: Integer" style="text;align=left;verticalAlign=top;spacingLeft=4;spacingRight=4;overflow=hidden;rotatable=0;points=[[0,0.5],[1,0.5]];portConstraint=eastwest;fontSize=13;" parent="VGiHOSESfFHdLOJ1oZRl-45" vertex="1">
          <mxGeometry y="86" width="310" height="38" as="geometry" />
        </mxCell>
        <mxCell id="nEIooyWPOeOvzlB_-CP3-10" value="" style="endArrow=none;html=1;rounded=0;exitX=0;exitY=0.898;exitDx=0;exitDy=0;fontSize=13;entryX=1.002;entryY=0.898;entryDx=0;entryDy=0;entryPerimeter=0;exitPerimeter=0;" parent="VGiHOSESfFHdLOJ1oZRl-45" source="VGiHOSESfFHdLOJ1oZRl-48" target="VGiHOSESfFHdLOJ1oZRl-48" edge="1">
          <mxGeometry width="50" height="50" relative="1" as="geometry">
            <mxPoint y="120" as="sourcePoint" />
            <mxPoint x="225" y="120" as="targetPoint" />
          </mxGeometry>
        </mxCell>
        <mxCell id="xX_5yBCRnIP-SUN4rKKG-28" value="# Round()" style="text;align=left;verticalAlign=top;spacingLeft=4;spacingRight=4;overflow=hidden;rotatable=0;points=[[0,0.5],[1,0.5]];portConstraint=eastwest;fontSize=13;" parent="VGiHOSESfFHdLOJ1oZRl-45" vertex="1">
          <mxGeometry y="124" width="310" height="26" as="geometry" />
        </mxCell>
        <mxCell id="5eNANyw-pt9bPJjnBM40-125" value="# Round(givenPoints: Integer)" style="text;align=left;verticalAlign=top;spacingLeft=4;spacingRight=4;overflow=hidden;rotatable=0;points=[[0,0.5],[1,0.5]];portConstraint=eastwest;fontSize=13;" parent="VGiHOSESfFHdLOJ1oZRl-45" vertex="1">
          <mxGeometry y="150" width="310" height="26" as="geometry" />
        </mxCell>
        <mxCell id="nEIooyWPOeOvzlB_-CP3-9" value="+ generateMatches(players: List&lt;Player&gt;): void" style="text;align=left;verticalAlign=top;spacingLeft=4;spacingRight=4;overflow=hidden;rotatable=0;points=[[0,0.5],[1,0.5]];portConstraint=eastwest;fontSize=13;" parent="VGiHOSESfFHdLOJ1oZRl-45" vertex="1">
          <mxGeometry y="176" width="310" height="26" as="geometry" />
        </mxCell>
        <mxCell id="VGiHOSESfFHdLOJ1oZRl-54" style="rounded=0;orthogonalLoop=1;jettySize=auto;html=1;startArrow=diamondThin;startFill=1;targetPerimeterSpacing=0;strokeWidth=1;endArrow=none;endFill=0;fontSize=13;arcSize=20;edgeStyle=orthogonalEdgeStyle;" parent="1" source="VGiHOSESfFHdLOJ1oZRl-1" target="VGiHOSESfFHdLOJ1oZRl-45" edge="1">
          <mxGeometry relative="1" as="geometry">
            <mxPoint x="450" y="487.01807228915686" as="sourcePoint" />
            <mxPoint x="370.00000000000045" y="729" as="targetPoint" />
            <Array as="points">
              <mxPoint x="260" y="-1040" />
              <mxPoint x="260" y="-350" />
            </Array>
          </mxGeometry>
        </mxCell>
        <mxCell id="VGiHOSESfFHdLOJ1oZRl-57" style="rounded=0;orthogonalLoop=1;jettySize=auto;html=1;fontSize=13;startArrow=diamondThin;startFill=1;endArrow=none;endFill=0;edgeStyle=orthogonalEdgeStyle;" parent="1" source="VGiHOSESfFHdLOJ1oZRl-17" target="VGiHOSESfFHdLOJ1oZRl-9" edge="1">
          <mxGeometry relative="1" as="geometry">
            <mxPoint x="-640" y="501.9041095890411" as="targetPoint" />
            <Array as="points">
              <mxPoint x="50" y="-20" />
              <mxPoint x="50" y="-20" />
            </Array>
          </mxGeometry>
        </mxCell>
        <mxCell id="VGiHOSESfFHdLOJ1oZRl-58" value="&lt;Interface&gt;&#xa;Repository&lt;T, K&gt;&#xa;" style="swimlane;fontStyle=2;align=center;verticalAlign=top;childLayout=stackLayout;horizontal=1;startSize=50;horizontalStack=0;resizeParent=1;resizeLast=0;collapsible=1;marginBottom=0;rounded=0;shadow=0;strokeWidth=1;fontSize=17;movable=1;resizable=1;rotatable=1;deletable=1;editable=1;locked=0;connectable=1;" parent="1" vertex="1">
          <mxGeometry x="500" y="-480" width="170" height="190" as="geometry">
            <mxRectangle x="230" y="140" width="160" height="26" as="alternateBounds" />
          </mxGeometry>
        </mxCell>
        <mxCell id="VGiHOSESfFHdLOJ1oZRl-59" value="+ create(model:T):K" style="text;align=left;verticalAlign=top;spacingLeft=4;spacingRight=4;overflow=hidden;rotatable=0;points=[[0,0.5],[1,0.5]];portConstraint=eastwest;fontSize=13;" parent="VGiHOSESfFHdLOJ1oZRl-58" vertex="1">
          <mxGeometry y="50" width="170" height="26" as="geometry" />
        </mxCell>
        <mxCell id="VGiHOSESfFHdLOJ1oZRl-60" value="+ find(id:K):T" style="text;align=left;verticalAlign=top;spacingLeft=4;spacingRight=4;overflow=hidden;rotatable=0;points=[[0,0.5],[1,0.5]];portConstraint=eastwest;fontSize=13;" parent="VGiHOSESfFHdLOJ1oZRl-58" vertex="1">
          <mxGeometry y="76" width="170" height="26" as="geometry" />
        </mxCell>
        <mxCell id="VGiHOSESfFHdLOJ1oZRl-61" value="+ update(model:T):void" style="text;align=left;verticalAlign=top;spacingLeft=4;spacingRight=4;overflow=hidden;rotatable=0;points=[[0,0.5],[1,0.5]];portConstraint=eastwest;fontSize=13;" parent="VGiHOSESfFHdLOJ1oZRl-58" vertex="1">
          <mxGeometry y="102" width="170" height="26" as="geometry" />
        </mxCell>
        <mxCell id="VGiHOSESfFHdLOJ1oZRl-62" value="+ delete(id:K):void" style="text;align=left;verticalAlign=top;spacingLeft=4;spacingRight=4;overflow=hidden;rotatable=0;points=[[0,0.5],[1,0.5]];portConstraint=eastwest;fontSize=13;" parent="VGiHOSESfFHdLOJ1oZRl-58" vertex="1">
          <mxGeometry y="128" width="170" height="26" as="geometry" />
        </mxCell>
        <mxCell id="VGiHOSESfFHdLOJ1oZRl-63" value="+ getAll():List&lt;T&gt;" style="text;align=left;verticalAlign=top;spacingLeft=4;spacingRight=4;overflow=hidden;rotatable=0;points=[[0,0.5],[1,0.5]];portConstraint=eastwest;fontSize=13;" parent="VGiHOSESfFHdLOJ1oZRl-58" vertex="1">
          <mxGeometry y="154" width="170" height="32" as="geometry" />
        </mxCell>
        <mxCell id="VGiHOSESfFHdLOJ1oZRl-64" style="rounded=0;orthogonalLoop=1;jettySize=auto;html=1;dashed=1;endArrow=block;endFill=0;fontSize=13;" parent="1" source="VGiHOSESfFHdLOJ1oZRl-65" target="VGiHOSESfFHdLOJ1oZRl-58" edge="1">
          <mxGeometry relative="1" as="geometry" />
        </mxCell>
        <mxCell id="5eNANyw-pt9bPJjnBM40-162" style="rounded=0;orthogonalLoop=1;jettySize=auto;html=1;edgeStyle=orthogonalEdgeStyle;" parent="1" source="VGiHOSESfFHdLOJ1oZRl-65" target="VGiHOSESfFHdLOJ1oZRl-1" edge="1">
          <mxGeometry relative="1" as="geometry">
            <Array as="points">
              <mxPoint x="420" y="-75" />
              <mxPoint x="420" y="-990" />
            </Array>
          </mxGeometry>
        </mxCell>
        <mxCell id="VGiHOSESfFHdLOJ1oZRl-65" value="PlayerRepositoryImpl" style="swimlane;fontStyle=0;align=center;verticalAlign=top;childLayout=stackLayout;horizontal=1;startSize=38;horizontalStack=0;resizeParent=1;resizeLast=0;collapsible=1;marginBottom=0;rounded=0;shadow=0;strokeWidth=1;fontSize=18;movable=1;resizable=1;rotatable=1;deletable=1;editable=1;locked=0;connectable=1;" parent="1" vertex="1">
          <mxGeometry x="470" y="-232" width="230" height="314" as="geometry">
            <mxRectangle x="230" y="140" width="160" height="26" as="alternateBounds" />
          </mxGeometry>
        </mxCell>
        <mxCell id="5eNANyw-pt9bPJjnBM40-46" value="- filePath:String" style="text;align=left;verticalAlign=top;spacingLeft=4;spacingRight=4;overflow=hidden;rotatable=1;points=[[0,0.5],[1,0.5]];portConstraint=eastwest;fontSize=13;movable=1;resizable=1;deletable=1;editable=1;locked=0;connectable=1;" parent="VGiHOSESfFHdLOJ1oZRl-65" vertex="1">
          <mxGeometry y="38" width="230" height="26" as="geometry" />
        </mxCell>
        <mxCell id="5eNANyw-pt9bPJjnBM40-47" value="- tournaments:List&lt;Tournament&gt;" style="text;align=left;verticalAlign=top;spacingLeft=4;spacingRight=4;overflow=hidden;rotatable=0;points=[[0,0.5],[1,0.5]];portConstraint=eastwest;fontSize=13;" parent="VGiHOSESfFHdLOJ1oZRl-65" vertex="1">
          <mxGeometry y="64" width="230" height="36" as="geometry" />
        </mxCell>
        <mxCell id="i8JfOvQEkmdqewgDpSSB-4" value="+ PlayerRepositoryImp()" style="text;align=left;verticalAlign=top;spacingLeft=4;spacingRight=4;overflow=hidden;rotatable=0;points=[[0,0.5],[1,0.5]];portConstraint=eastwest;fontSize=13;" parent="VGiHOSESfFHdLOJ1oZRl-65" vertex="1">
          <mxGeometry y="100" width="230" height="24" as="geometry" />
        </mxCell>
        <mxCell id="5eNANyw-pt9bPJjnBM40-103" value="+ create(model:Player):Integer" style="text;align=left;verticalAlign=top;spacingLeft=4;spacingRight=4;overflow=hidden;rotatable=0;points=[[0,0.5],[1,0.5]];portConstraint=eastwest;fontSize=13;" parent="VGiHOSESfFHdLOJ1oZRl-65" vertex="1">
          <mxGeometry y="124" width="230" height="24" as="geometry" />
        </mxCell>
        <mxCell id="i8JfOvQEkmdqewgDpSSB-5" value="+ find(id:Integer):Player" style="text;align=left;verticalAlign=top;spacingLeft=4;spacingRight=4;overflow=hidden;rotatable=0;points=[[0,0.5],[1,0.5]];portConstraint=eastwest;fontSize=13;" parent="VGiHOSESfFHdLOJ1oZRl-65" vertex="1">
          <mxGeometry y="148" width="230" height="24" as="geometry" />
        </mxCell>
        <mxCell id="i8JfOvQEkmdqewgDpSSB-3" value="+ update(model:Player):void" style="text;align=left;verticalAlign=top;spacingLeft=4;spacingRight=4;overflow=hidden;rotatable=0;points=[[0,0.5],[1,0.5]];portConstraint=eastwest;fontSize=13;" parent="VGiHOSESfFHdLOJ1oZRl-65" vertex="1">
          <mxGeometry y="172" width="230" height="26" as="geometry" />
        </mxCell>
        <mxCell id="i8JfOvQEkmdqewgDpSSB-2" value="+ delete(id:Integer):void" style="text;align=left;verticalAlign=top;spacingLeft=4;spacingRight=4;overflow=hidden;rotatable=0;points=[[0,0.5],[1,0.5]];portConstraint=eastwest;fontSize=13;" parent="VGiHOSESfFHdLOJ1oZRl-65" vertex="1">
          <mxGeometry y="198" width="230" height="26" as="geometry" />
        </mxCell>
        <mxCell id="i8JfOvQEkmdqewgDpSSB-1" value="+ getAll(id:Integer):List&lt;Player&gt;" style="text;align=left;verticalAlign=top;spacingLeft=4;spacingRight=4;overflow=hidden;rotatable=0;points=[[0,0.5],[1,0.5]];portConstraint=eastwest;fontSize=13;" parent="VGiHOSESfFHdLOJ1oZRl-65" vertex="1">
          <mxGeometry y="224" width="230" height="30" as="geometry" />
        </mxCell>
        <mxCell id="5eNANyw-pt9bPJjnBM40-54" value="- generateTournamentID():Integer" style="text;align=left;verticalAlign=top;spacingLeft=4;spacingRight=4;overflow=hidden;rotatable=0;points=[[0,0.5],[1,0.5]];portConstraint=eastwest;fontSize=13;" parent="VGiHOSESfFHdLOJ1oZRl-65" vertex="1">
          <mxGeometry y="254" width="230" height="30" as="geometry" />
        </mxCell>
        <mxCell id="5eNANyw-pt9bPJjnBM40-55" value="- getUpdatedData():String" style="text;align=left;verticalAlign=top;spacingLeft=4;spacingRight=4;overflow=hidden;rotatable=0;points=[[0,0.5],[1,0.5]];portConstraint=eastwest;fontSize=13;" parent="VGiHOSESfFHdLOJ1oZRl-65" vertex="1">
          <mxGeometry y="284" width="230" height="30" as="geometry" />
        </mxCell>
        <mxCell id="5eNANyw-pt9bPJjnBM40-49" value="" style="endArrow=none;html=1;rounded=0;exitX=-0.012;exitY=0.985;exitDx=0;exitDy=0;fontSize=13;entryX=0.996;entryY=0.96;entryDx=0;entryDy=0;entryPerimeter=0;exitPerimeter=0;" parent="VGiHOSESfFHdLOJ1oZRl-65" source="5eNANyw-pt9bPJjnBM40-47" target="5eNANyw-pt9bPJjnBM40-47" edge="1">
          <mxGeometry width="50" height="50" relative="1" as="geometry">
            <mxPoint y="98.95000000000005" as="sourcePoint" />
            <mxPoint x="340" y="98.95000000000005" as="targetPoint" />
          </mxGeometry>
        </mxCell>
        <mxCell id="VGiHOSESfFHdLOJ1oZRl-66" style="rounded=0;orthogonalLoop=1;jettySize=auto;html=1;dashed=1;endArrow=block;endFill=0;fontSize=13;" parent="1" source="VGiHOSESfFHdLOJ1oZRl-70" target="VGiHOSESfFHdLOJ1oZRl-58" edge="1">
          <mxGeometry relative="1" as="geometry">
            <mxPoint x="375" y="-937.06" as="targetPoint" />
            <mxPoint x="105" y="-969" as="sourcePoint" />
          </mxGeometry>
        </mxCell>
        <mxCell id="VGiHOSESfFHdLOJ1oZRl-68" value="" style="rounded=0;orthogonalLoop=1;jettySize=auto;html=1;endArrow=open;endFill=0;fontSize=13;edgeStyle=orthogonalEdgeStyle;" parent="1" source="VGiHOSESfFHdLOJ1oZRl-25" target="VGiHOSESfFHdLOJ1oZRl-70" edge="1">
          <mxGeometry relative="1" as="geometry">
            <mxPoint x="350" y="11" as="sourcePoint" />
            <mxPoint x="-59" y="-174" as="targetPoint" />
            <Array as="points">
              <mxPoint x="790" y="-620" />
              <mxPoint x="790" y="-620" />
            </Array>
          </mxGeometry>
        </mxCell>
        <mxCell id="5eNANyw-pt9bPJjnBM40-161" style="rounded=0;orthogonalLoop=1;jettySize=auto;html=1;" parent="1" source="VGiHOSESfFHdLOJ1oZRl-70" target="VGiHOSESfFHdLOJ1oZRl-1" edge="1">
          <mxGeometry relative="1" as="geometry" />
        </mxCell>
        <mxCell id="VGiHOSESfFHdLOJ1oZRl-70" value="TournamentRepositoryImpl" style="swimlane;fontStyle=0;align=center;verticalAlign=top;childLayout=stackLayout;horizontal=1;startSize=38;horizontalStack=0;resizeParent=1;resizeLast=0;collapsible=1;marginBottom=0;rounded=0;shadow=0;strokeWidth=1;fontSize=18;movable=1;resizable=1;rotatable=1;deletable=1;editable=1;locked=0;connectable=1;" parent="1" vertex="1">
          <mxGeometry x="460" y="-854" width="250" height="300" as="geometry">
            <mxRectangle x="230" y="140" width="160" height="26" as="alternateBounds" />
          </mxGeometry>
        </mxCell>
        <mxCell id="2csJdF3mmEnUexhcUhtk-6" value="- filePath:String" style="text;align=left;verticalAlign=top;spacingLeft=4;spacingRight=4;overflow=hidden;rotatable=1;points=[[0,0.5],[1,0.5]];portConstraint=eastwest;fontSize=13;movable=1;resizable=1;deletable=1;editable=1;locked=0;connectable=1;" parent="VGiHOSESfFHdLOJ1oZRl-70" vertex="1">
          <mxGeometry y="38" width="250" height="26" as="geometry" />
        </mxCell>
        <mxCell id="5eNANyw-pt9bPJjnBM40-36" value="" style="endArrow=none;html=1;rounded=0;exitX=-0.008;exitY=0.96;exitDx=0;exitDy=0;fontSize=13;entryX=1.007;entryY=0.96;entryDx=0;entryDy=0;entryPerimeter=0;exitPerimeter=0;" parent="VGiHOSESfFHdLOJ1oZRl-70" source="2csJdF3mmEnUexhcUhtk-7" target="2csJdF3mmEnUexhcUhtk-7" edge="1">
          <mxGeometry width="50" height="50" relative="1" as="geometry">
            <mxPoint y="98" as="sourcePoint" />
            <mxPoint x="275" y="97.99999999999977" as="targetPoint" />
          </mxGeometry>
        </mxCell>
        <mxCell id="2csJdF3mmEnUexhcUhtk-7" value="- tournaments:List&lt;Tournament&gt;" style="text;align=left;verticalAlign=top;spacingLeft=4;spacingRight=4;overflow=hidden;rotatable=0;points=[[0,0.5],[1,0.5]];portConstraint=eastwest;fontSize=13;" parent="VGiHOSESfFHdLOJ1oZRl-70" vertex="1">
          <mxGeometry y="64" width="250" height="36" as="geometry" />
        </mxCell>
        <mxCell id="5eNANyw-pt9bPJjnBM40-38" value="+ TournamentRepositoryImpl()" style="text;align=left;verticalAlign=top;spacingLeft=4;spacingRight=4;overflow=hidden;rotatable=0;points=[[0,0.5],[1,0.5]];portConstraint=eastwest;fontSize=13;" parent="VGiHOSESfFHdLOJ1oZRl-70" vertex="1">
          <mxGeometry y="100" width="250" height="26" as="geometry" />
        </mxCell>
        <mxCell id="5eNANyw-pt9bPJjnBM40-104" value="+ create(model:Tournament):Integer" style="text;align=left;verticalAlign=top;spacingLeft=4;spacingRight=4;overflow=hidden;rotatable=0;points=[[0,0.5],[1,0.5]];portConstraint=eastwest;fontSize=13;" parent="VGiHOSESfFHdLOJ1oZRl-70" vertex="1">
          <mxGeometry y="126" width="250" height="26" as="geometry" />
        </mxCell>
        <mxCell id="5eNANyw-pt9bPJjnBM40-37" value="+ find(id:Integer):Tournament" style="text;align=left;verticalAlign=top;spacingLeft=4;spacingRight=4;overflow=hidden;rotatable=0;points=[[0,0.5],[1,0.5]];portConstraint=eastwest;fontSize=13;" parent="VGiHOSESfFHdLOJ1oZRl-70" vertex="1">
          <mxGeometry y="152" width="250" height="24" as="geometry" />
        </mxCell>
        <mxCell id="2csJdF3mmEnUexhcUhtk-8" value="+ update(model:Tournament):void" style="text;align=left;verticalAlign=top;spacingLeft=4;spacingRight=4;overflow=hidden;rotatable=0;points=[[0,0.5],[1,0.5]];portConstraint=eastwest;fontSize=13;" parent="VGiHOSESfFHdLOJ1oZRl-70" vertex="1">
          <mxGeometry y="176" width="250" height="26" as="geometry" />
        </mxCell>
        <mxCell id="2csJdF3mmEnUexhcUhtk-9" value="+ delete(id:Integer):void" style="text;align=left;verticalAlign=top;spacingLeft=4;spacingRight=4;overflow=hidden;rotatable=0;points=[[0,0.5],[1,0.5]];portConstraint=eastwest;fontSize=13;" parent="VGiHOSESfFHdLOJ1oZRl-70" vertex="1">
          <mxGeometry y="202" width="250" height="26" as="geometry" />
        </mxCell>
        <mxCell id="2csJdF3mmEnUexhcUhtk-10" value="+ getAll(id:Integer):List&lt;Tournament&gt;" style="text;align=left;verticalAlign=top;spacingLeft=4;spacingRight=4;overflow=hidden;rotatable=0;points=[[0,0.5],[1,0.5]];portConstraint=eastwest;fontSize=13;" parent="VGiHOSESfFHdLOJ1oZRl-70" vertex="1">
          <mxGeometry y="228" width="250" height="24" as="geometry" />
        </mxCell>
        <mxCell id="5eNANyw-pt9bPJjnBM40-41" value="- generateTournamentID():Integer" style="text;align=left;verticalAlign=top;spacingLeft=4;spacingRight=4;overflow=hidden;rotatable=0;points=[[0,0.5],[1,0.5]];portConstraint=eastwest;fontSize=13;" parent="VGiHOSESfFHdLOJ1oZRl-70" vertex="1">
          <mxGeometry y="252" width="250" height="24" as="geometry" />
        </mxCell>
        <mxCell id="5eNANyw-pt9bPJjnBM40-42" value="- getUpdatedData():String" style="text;align=left;verticalAlign=top;spacingLeft=4;spacingRight=4;overflow=hidden;rotatable=0;points=[[0,0.5],[1,0.5]];portConstraint=eastwest;fontSize=13;" parent="VGiHOSESfFHdLOJ1oZRl-70" vertex="1">
          <mxGeometry y="276" width="250" height="24" as="geometry" />
        </mxCell>
        <mxCell id="5eNANyw-pt9bPJjnBM40-150" style="rounded=0;orthogonalLoop=1;jettySize=auto;html=1;endArrow=open;endFill=0;edgeStyle=orthogonalEdgeStyle;" parent="1" source="VGiHOSESfFHdLOJ1oZRl-25" target="5eNANyw-pt9bPJjnBM40-26" edge="1">
          <mxGeometry relative="1" as="geometry">
            <Array as="points">
              <mxPoint x="1330" y="-495" />
              <mxPoint x="1330" y="-147" />
            </Array>
          </mxGeometry>
        </mxCell>
        <mxCell id="5eNANyw-pt9bPJjnBM40-151" style="rounded=0;orthogonalLoop=1;jettySize=auto;html=1;endArrow=open;endFill=0;" parent="1" source="VGiHOSESfFHdLOJ1oZRl-25" target="5eNANyw-pt9bPJjnBM40-16" edge="1">
          <mxGeometry relative="1" as="geometry" />
        </mxCell>
        <mxCell id="5eNANyw-pt9bPJjnBM40-179" value="1" style="edgeLabel;html=1;align=center;verticalAlign=middle;resizable=0;points=[];" parent="5eNANyw-pt9bPJjnBM40-151" vertex="1" connectable="0">
          <mxGeometry x="-0.5333" y="-2" relative="1" as="geometry">
            <mxPoint as="offset" />
          </mxGeometry>
        </mxCell>
        <mxCell id="5eNANyw-pt9bPJjnBM40-180" value="N" style="edgeLabel;html=1;align=center;verticalAlign=middle;resizable=0;points=[];" parent="5eNANyw-pt9bPJjnBM40-151" vertex="1" connectable="0">
          <mxGeometry x="0.6" y="2" relative="1" as="geometry">
            <mxPoint as="offset" />
          </mxGeometry>
        </mxCell>
        <mxCell id="VGiHOSESfFHdLOJ1oZRl-25" value="TournamentService" style="swimlane;fontStyle=0;align=center;verticalAlign=top;childLayout=stackLayout;horizontal=1;startSize=42;horizontalStack=0;resizeParent=1;resizeLast=0;collapsible=1;marginBottom=0;rounded=0;shadow=0;strokeWidth=1;fontSize=18;" parent="1" vertex="1">
          <mxGeometry x="827" y="-860" width="440" height="730" as="geometry">
            <mxRectangle x="230" y="140" width="160" height="26" as="alternateBounds" />
          </mxGeometry>
        </mxCell>
        <mxCell id="5eNANyw-pt9bPJjnBM40-87" value="- tournamentRepository: TournamentRepositoryImp" style="text;align=left;verticalAlign=top;spacingLeft=4;spacingRight=4;overflow=hidden;rotatable=0;points=[[0,0.5],[1,0.5]];portConstraint=eastwest;fontSize=13;" parent="VGiHOSESfFHdLOJ1oZRl-25" vertex="1">
          <mxGeometry y="42" width="440" height="28" as="geometry" />
        </mxCell>
        <mxCell id="5eNANyw-pt9bPJjnBM40-88" value="- tournamentPlayerService: TournamentPlayerService" style="text;align=left;verticalAlign=top;spacingLeft=4;spacingRight=4;overflow=hidden;rotatable=0;points=[[0,0.5],[1,0.5]];portConstraint=eastwest;fontSize=13;" parent="VGiHOSESfFHdLOJ1oZRl-25" vertex="1">
          <mxGeometry y="70" width="440" height="28" as="geometry" />
        </mxCell>
        <mxCell id="5eNANyw-pt9bPJjnBM40-90" value="- roundService: RoundService" style="text;align=left;verticalAlign=top;spacingLeft=4;spacingRight=4;overflow=hidden;rotatable=0;points=[[0,0.5],[1,0.5]];portConstraint=eastwest;fontSize=13;" parent="VGiHOSESfFHdLOJ1oZRl-25" vertex="1">
          <mxGeometry y="98" width="440" height="28" as="geometry" />
        </mxCell>
        <mxCell id="5eNANyw-pt9bPJjnBM40-89" value="- matchService: MatchService" style="text;align=left;verticalAlign=top;spacingLeft=4;spacingRight=4;overflow=hidden;rotatable=0;points=[[0,0.5],[1,0.5]];portConstraint=eastwest;fontSize=13;" parent="VGiHOSESfFHdLOJ1oZRl-25" vertex="1">
          <mxGeometry y="126" width="440" height="28" as="geometry" />
        </mxCell>
        <mxCell id="5eNANyw-pt9bPJjnBM40-92" value="- tournamentStatusService: TournamentStatusService" style="text;align=left;verticalAlign=top;spacingLeft=4;spacingRight=4;overflow=hidden;rotatable=0;points=[[0,0.5],[1,0.5]];portConstraint=eastwest;fontSize=13;" parent="VGiHOSESfFHdLOJ1oZRl-25" vertex="1">
          <mxGeometry y="154" width="440" height="28" as="geometry" />
        </mxCell>
        <mxCell id="Emz4GKHIFxmzqfznbhwv-12" value="- tournament: Tournament" style="text;align=left;verticalAlign=top;spacingLeft=4;spacingRight=4;overflow=hidden;rotatable=0;points=[[0,0.5],[1,0.5]];portConstraint=eastwest;fontSize=13;" parent="VGiHOSESfFHdLOJ1oZRl-25" vertex="1">
          <mxGeometry y="182" width="440" height="44" as="geometry" />
        </mxCell>
        <mxCell id="Emz4GKHIFxmzqfznbhwv-14" value="" style="endArrow=none;html=1;rounded=0;exitX=-0.008;exitY=0.986;exitDx=0;exitDy=0;entryX=0.997;entryY=1.008;entryDx=0;entryDy=0;fontSize=13;entryPerimeter=0;exitPerimeter=0;" parent="VGiHOSESfFHdLOJ1oZRl-25" source="Emz4GKHIFxmzqfznbhwv-12" target="Emz4GKHIFxmzqfznbhwv-12" edge="1">
          <mxGeometry width="50" height="50" relative="1" as="geometry">
            <mxPoint y="60" as="sourcePoint" />
            <mxPoint x="330" y="60" as="targetPoint" />
          </mxGeometry>
        </mxCell>
        <mxCell id="5eNANyw-pt9bPJjnBM40-93" value="+ TournamentService(tournamentRepository: TournamentRepositoryImp,&#xa;   tournament: Tournament)" style="text;align=left;verticalAlign=top;spacingLeft=4;spacingRight=4;overflow=hidden;rotatable=0;points=[[0,0.5],[1,0.5]];portConstraint=eastwest;fontSize=13;" parent="VGiHOSESfFHdLOJ1oZRl-25" vertex="1">
          <mxGeometry y="226" width="440" height="42" as="geometry" />
        </mxCell>
        <mxCell id="5eNANyw-pt9bPJjnBM40-95" value="+ TournamentService(tournamentRepository: TournamentRepositoryImp,&#xa;   idTournament: Integer)" style="text;align=left;verticalAlign=top;spacingLeft=4;spacingRight=4;overflow=hidden;rotatable=0;points=[[0,0.5],[1,0.5]];portConstraint=eastwest;fontSize=13;" parent="VGiHOSESfFHdLOJ1oZRl-25" vertex="1">
          <mxGeometry y="268" width="440" height="42" as="geometry" />
        </mxCell>
        <mxCell id="-fQBZmmFNFToeFe26IZ8-2" value="+ addTournament(tournament: Tournament): Integer" style="text;align=left;verticalAlign=top;spacingLeft=4;spacingRight=4;overflow=hidden;rotatable=0;points=[[0,0.5],[1,0.5]];portConstraint=eastwest;fontSize=13;" parent="VGiHOSESfFHdLOJ1oZRl-25" vertex="1">
          <mxGeometry y="310" width="440" height="26" as="geometry" />
        </mxCell>
        <mxCell id="-fQBZmmFNFToeFe26IZ8-4" value="+ findTournamentById(id: Integer): Tournament" style="text;align=left;verticalAlign=top;spacingLeft=4;spacingRight=4;overflow=hidden;rotatable=0;points=[[0,0.5],[1,0.5]];portConstraint=eastwest;fontSize=13;" parent="VGiHOSESfFHdLOJ1oZRl-25" vertex="1">
          <mxGeometry y="336" width="440" height="30" as="geometry" />
        </mxCell>
        <mxCell id="VGiHOSESfFHdLOJ1oZRl-24" value="+ updateTournament(tournament: Tournament): void" style="text;align=left;verticalAlign=top;spacingLeft=4;spacingRight=4;overflow=hidden;rotatable=0;points=[[0,0.5],[1,0.5]];portConstraint=eastwest;fontSize=13;" parent="VGiHOSESfFHdLOJ1oZRl-25" vertex="1">
          <mxGeometry y="366" width="440" height="26" as="geometry" />
        </mxCell>
        <mxCell id="-fQBZmmFNFToeFe26IZ8-1" value="+ deleteTournament(id: Integer): void" style="text;align=left;verticalAlign=top;spacingLeft=4;spacingRight=4;overflow=hidden;rotatable=0;points=[[0,0.5],[1,0.5]];portConstraint=eastwest;fontSize=13;" parent="VGiHOSESfFHdLOJ1oZRl-25" vertex="1">
          <mxGeometry y="392" width="440" height="26" as="geometry" />
        </mxCell>
        <mxCell id="-fQBZmmFNFToeFe26IZ8-17" value="+ getAllTournaments(): List&lt;Tournament&gt;" style="text;align=left;verticalAlign=top;spacingLeft=4;spacingRight=4;overflow=hidden;rotatable=0;points=[[0,0.5],[1,0.5]];portConstraint=eastwest;fontSize=13;" parent="VGiHOSESfFHdLOJ1oZRl-25" vertex="1">
          <mxGeometry y="418" width="440" height="30" as="geometry" />
        </mxCell>
        <mxCell id="Emz4GKHIFxmzqfznbhwv-7" value="+ registerPlayerInTournament(player: Player): void" style="text;align=left;verticalAlign=top;spacingLeft=4;spacingRight=4;overflow=hidden;rotatable=0;points=[[0,0.5],[1,0.5]];portConstraint=eastwest;fontSize=13;" parent="VGiHOSESfFHdLOJ1oZRl-25" vertex="1">
          <mxGeometry y="448" width="440" height="24" as="geometry" />
        </mxCell>
        <mxCell id="Emz4GKHIFxmzqfznbhwv-9" value="+ unsubscribePlayerFromTournament(idPlayer: Integer): void" style="text;align=left;verticalAlign=top;spacingLeft=4;spacingRight=4;overflow=hidden;rotatable=0;points=[[0,0.5],[1,0.5]];portConstraint=eastwest;fontSize=13;" parent="VGiHOSESfFHdLOJ1oZRl-25" vertex="1">
          <mxGeometry y="472" width="440" height="26" as="geometry" />
        </mxCell>
        <mxCell id="Emz4GKHIFxmzqfznbhwv-8" value="+ assignResultToMatch(matchId: Integer, result: Result): void" style="text;align=left;verticalAlign=top;spacingLeft=4;spacingRight=4;overflow=hidden;rotatable=0;points=[[0,0.5],[1,0.5]];portConstraint=eastwest;fontSize=13;" parent="VGiHOSESfFHdLOJ1oZRl-25" vertex="1">
          <mxGeometry y="498" width="440" height="30" as="geometry" />
        </mxCell>
        <mxCell id="Emz4GKHIFxmzqfznbhwv-10" value="+ modifyResultToMatch(matchId: Integer, result: Result): void" style="text;align=left;verticalAlign=top;spacingLeft=4;spacingRight=4;overflow=hidden;rotatable=0;points=[[0,0.5],[1,0.5]];portConstraint=eastwest;fontSize=13;" parent="VGiHOSESfFHdLOJ1oZRl-25" vertex="1">
          <mxGeometry y="528" width="440" height="26" as="geometry" />
        </mxCell>
        <mxCell id="Emz4GKHIFxmzqfznbhwv-11" value="+ advanceTournament(): void" style="text;align=left;verticalAlign=top;spacingLeft=4;spacingRight=4;overflow=hidden;rotatable=0;points=[[0,0.5],[1,0.5]];portConstraint=eastwest;fontSize=13;" parent="VGiHOSESfFHdLOJ1oZRl-25" vertex="1">
          <mxGeometry y="554" width="440" height="24" as="geometry" />
        </mxCell>
        <mxCell id="5eNANyw-pt9bPJjnBM40-96" value="+ getTournamentWinner(): Player" style="text;align=left;verticalAlign=top;spacingLeft=4;spacingRight=4;overflow=hidden;rotatable=0;points=[[0,0.5],[1,0.5]];portConstraint=eastwest;fontSize=13;" parent="VGiHOSESfFHdLOJ1oZRl-25" vertex="1">
          <mxGeometry y="578" width="440" height="24" as="geometry" />
        </mxCell>
        <mxCell id="5eNANyw-pt9bPJjnBM40-97" value="+ getTournament(): Tournament" style="text;align=left;verticalAlign=top;spacingLeft=4;spacingRight=4;overflow=hidden;rotatable=0;points=[[0,0.5],[1,0.5]];portConstraint=eastwest;fontSize=13;" parent="VGiHOSESfFHdLOJ1oZRl-25" vertex="1">
          <mxGeometry y="602" width="440" height="24" as="geometry" />
        </mxCell>
        <mxCell id="5eNANyw-pt9bPJjnBM40-98" value="+ getTournamentPlayerService(): TournamentPlayerService" style="text;align=left;verticalAlign=top;spacingLeft=4;spacingRight=4;overflow=hidden;rotatable=0;points=[[0,0.5],[1,0.5]];portConstraint=eastwest;fontSize=13;" parent="VGiHOSESfFHdLOJ1oZRl-25" vertex="1">
          <mxGeometry y="626" width="440" height="24" as="geometry" />
        </mxCell>
        <mxCell id="5eNANyw-pt9bPJjnBM40-99" value="+ getTournamentRoundService(): RoundService" style="text;align=left;verticalAlign=top;spacingLeft=4;spacingRight=4;overflow=hidden;rotatable=0;points=[[0,0.5],[1,0.5]];portConstraint=eastwest;fontSize=13;" parent="VGiHOSESfFHdLOJ1oZRl-25" vertex="1">
          <mxGeometry y="650" width="440" height="24" as="geometry" />
        </mxCell>
        <mxCell id="5eNANyw-pt9bPJjnBM40-100" value="+ getTournamentMatchService(): MatchService" style="text;align=left;verticalAlign=top;spacingLeft=4;spacingRight=4;overflow=hidden;rotatable=0;points=[[0,0.5],[1,0.5]];portConstraint=eastwest;fontSize=13;" parent="VGiHOSESfFHdLOJ1oZRl-25" vertex="1">
          <mxGeometry y="674" width="440" height="24" as="geometry" />
        </mxCell>
        <mxCell id="5eNANyw-pt9bPJjnBM40-101" value="- initServices(): void" style="text;align=left;verticalAlign=top;spacingLeft=4;spacingRight=4;overflow=hidden;rotatable=0;points=[[0,0.5],[1,0.5]];portConstraint=eastwest;fontSize=13;" parent="VGiHOSESfFHdLOJ1oZRl-25" vertex="1">
          <mxGeometry y="698" width="440" height="32" as="geometry" />
        </mxCell>
        <mxCell id="-fQBZmmFNFToeFe26IZ8-19" value="&lt;Enum&gt;&#xa;ESurface" style="swimlane;fontStyle=0;align=center;verticalAlign=top;childLayout=stackLayout;horizontal=1;startSize=50;horizontalStack=0;resizeParent=1;resizeLast=0;collapsible=1;marginBottom=0;rounded=0;shadow=0;strokeWidth=1;fontSize=17;" parent="1" vertex="1">
          <mxGeometry x="87.5" y="-1270" width="180" height="154" as="geometry">
            <mxRectangle x="550" y="140" width="160" height="26" as="alternateBounds" />
          </mxGeometry>
        </mxCell>
        <mxCell id="-fQBZmmFNFToeFe26IZ8-22" value="CARPET" style="text;align=left;verticalAlign=top;spacingLeft=4;spacingRight=4;overflow=hidden;rotatable=0;points=[[0,0.5],[1,0.5]];portConstraint=eastwest;fontSize=13;" parent="-fQBZmmFNFToeFe26IZ8-19" vertex="1">
          <mxGeometry y="50" width="180" height="26" as="geometry" />
        </mxCell>
        <mxCell id="-fQBZmmFNFToeFe26IZ8-20" value="CLAY" style="text;align=left;verticalAlign=top;spacingLeft=4;spacingRight=4;overflow=hidden;rotatable=0;points=[[0,0.5],[1,0.5]];portConstraint=eastwest;fontSize=13;" parent="-fQBZmmFNFToeFe26IZ8-19" vertex="1">
          <mxGeometry y="76" width="180" height="26" as="geometry" />
        </mxCell>
        <mxCell id="-fQBZmmFNFToeFe26IZ8-24" value="HARD" style="text;align=left;verticalAlign=top;spacingLeft=4;spacingRight=4;overflow=hidden;rotatable=0;points=[[0,0.5],[1,0.5]];portConstraint=eastwest;fontSize=13;" parent="-fQBZmmFNFToeFe26IZ8-19" vertex="1">
          <mxGeometry y="102" width="180" height="26" as="geometry" />
        </mxCell>
        <mxCell id="-fQBZmmFNFToeFe26IZ8-25" value="GRASS" style="text;align=left;verticalAlign=top;spacingLeft=4;spacingRight=4;overflow=hidden;rotatable=0;points=[[0,0.5],[1,0.5]];portConstraint=eastwest;fontSize=13;" parent="-fQBZmmFNFToeFe26IZ8-19" vertex="1">
          <mxGeometry y="128" width="180" height="26" as="geometry" />
        </mxCell>
        <mxCell id="-fQBZmmFNFToeFe26IZ8-26" style="rounded=0;orthogonalLoop=1;jettySize=auto;html=1;endArrow=open;endFill=0;fontSize=13;edgeStyle=orthogonalEdgeStyle;" parent="1" source="VGiHOSESfFHdLOJ1oZRl-1" target="-fQBZmmFNFToeFe26IZ8-19" edge="1">
          <mxGeometry relative="1" as="geometry">
            <mxPoint x="-542.5" y="-914.9000000000001" as="sourcePoint" />
            <mxPoint x="-472.5" y="-469" as="targetPoint" />
            <Array as="points">
              <mxPoint x="178" y="-1070" />
            </Array>
          </mxGeometry>
        </mxCell>
        <mxCell id="VGiHOSESfFHdLOJ1oZRl-17" value="Match" style="swimlane;fontStyle=0;align=center;verticalAlign=top;childLayout=stackLayout;horizontal=1;startSize=32;horizontalStack=0;resizeParent=1;resizeLast=0;collapsible=1;marginBottom=0;rounded=0;shadow=0;strokeWidth=1;fontSize=17;" parent="1" vertex="1">
          <mxGeometry x="-30" y="-140" width="160" height="216" as="geometry">
            <mxRectangle x="550" y="140" width="160" height="26" as="alternateBounds" />
          </mxGeometry>
        </mxCell>
        <mxCell id="VGiHOSESfFHdLOJ1oZRl-18" value="- id: Integer" style="text;align=left;verticalAlign=top;spacingLeft=4;spacingRight=4;overflow=hidden;rotatable=0;points=[[0,0.5],[1,0.5]];portConstraint=eastwest;fontSize=13;" parent="VGiHOSESfFHdLOJ1oZRl-17" vertex="1">
          <mxGeometry y="32" width="160" height="26" as="geometry" />
        </mxCell>
        <mxCell id="VGiHOSESfFHdLOJ1oZRl-19" value="- playerOne: Player" style="text;align=left;verticalAlign=top;spacingLeft=4;spacingRight=4;overflow=hidden;rotatable=0;points=[[0,0.5],[1,0.5]];portConstraint=eastwest;fontSize=13;" parent="VGiHOSESfFHdLOJ1oZRl-17" vertex="1">
          <mxGeometry y="58" width="160" height="26" as="geometry" />
        </mxCell>
        <mxCell id="VGiHOSESfFHdLOJ1oZRl-20" value="- playerTwo: Player" style="text;align=left;verticalAlign=top;spacingLeft=4;spacingRight=4;overflow=hidden;rotatable=0;points=[[0,0.5],[1,0.5]];portConstraint=eastwest;fontSize=13;" parent="VGiHOSESfFHdLOJ1oZRl-17" vertex="1">
          <mxGeometry y="84" width="160" height="26" as="geometry" />
        </mxCell>
        <mxCell id="VGiHOSESfFHdLOJ1oZRl-21" value="- result: Result" style="text;align=left;verticalAlign=top;spacingLeft=4;spacingRight=4;overflow=hidden;rotatable=0;points=[[0,0.5],[1,0.5]];portConstraint=eastwest;rounded=0;shadow=0;html=0;fontSize=13;" parent="VGiHOSESfFHdLOJ1oZRl-17" vertex="1">
          <mxGeometry y="110" width="160" height="30" as="geometry" />
        </mxCell>
        <mxCell id="VGiHOSESfFHdLOJ1oZRl-55" style="rounded=0;orthogonalLoop=1;jettySize=auto;html=1;startArrow=diamondThin;startFill=1;targetPerimeterSpacing=0;strokeWidth=1;endArrow=none;endFill=0;fontSize=13;edgeStyle=orthogonalEdgeStyle;" parent="1" source="VGiHOSESfFHdLOJ1oZRl-45" target="VGiHOSESfFHdLOJ1oZRl-17" edge="1">
          <mxGeometry relative="1" as="geometry">
            <mxPoint x="170.00645161290322" y="621" as="sourcePoint" />
            <mxPoint x="80" y="659.0000000000005" as="targetPoint" />
            <Array as="points">
              <mxPoint x="50" y="-278" />
            </Array>
          </mxGeometry>
        </mxCell>
        <mxCell id="xX_5yBCRnIP-SUN4rKKG-1" value="FirstRound" style="swimlane;fontStyle=0;align=center;verticalAlign=top;childLayout=stackLayout;horizontal=1;startSize=30;horizontalStack=0;resizeParent=1;resizeLast=0;collapsible=1;marginBottom=0;rounded=0;shadow=0;strokeWidth=1;fontSize=17;" parent="1" vertex="1">
          <mxGeometry x="-105" y="-1010" width="310" height="110" as="geometry">
            <mxRectangle x="130" y="380" width="160" height="26" as="alternateBounds" />
          </mxGeometry>
        </mxCell>
        <mxCell id="5eNANyw-pt9bPJjnBM40-134" value="+ FirstRound()" style="text;align=left;verticalAlign=top;spacingLeft=4;spacingRight=4;overflow=hidden;rotatable=0;points=[[0,0.5],[1,0.5]];portConstraint=eastwest;fontSize=13;" parent="xX_5yBCRnIP-SUN4rKKG-1" vertex="1">
          <mxGeometry y="30" width="310" height="26" as="geometry" />
        </mxCell>
        <mxCell id="5eNANyw-pt9bPJjnBM40-135" value="+ FirstRound(givenPoints: Integer)" style="text;align=left;verticalAlign=top;spacingLeft=4;spacingRight=4;overflow=hidden;rotatable=0;points=[[0,0.5],[1,0.5]];portConstraint=eastwest;fontSize=13;" parent="xX_5yBCRnIP-SUN4rKKG-1" vertex="1">
          <mxGeometry y="56" width="310" height="26" as="geometry" />
        </mxCell>
        <mxCell id="5eNANyw-pt9bPJjnBM40-136" value="+ generateMatches(players: List&lt;Player&gt;): void" style="text;align=left;verticalAlign=top;spacingLeft=4;spacingRight=4;overflow=hidden;rotatable=0;points=[[0,0.5],[1,0.5]];portConstraint=eastwest;fontSize=13;" parent="xX_5yBCRnIP-SUN4rKKG-1" vertex="1">
          <mxGeometry y="82" width="310" height="26" as="geometry" />
        </mxCell>
        <mxCell id="5eNANyw-pt9bPJjnBM40-174" style="edgeStyle=orthogonalEdgeStyle;rounded=0;orthogonalLoop=1;jettySize=auto;html=1;" parent="1" source="xX_5yBCRnIP-SUN4rKKG-5" target="VGiHOSESfFHdLOJ1oZRl-45" edge="1">
          <mxGeometry relative="1" as="geometry">
            <Array as="points">
              <mxPoint x="-160" y="-810" />
              <mxPoint x="-160" y="-350" />
            </Array>
          </mxGeometry>
        </mxCell>
        <mxCell id="xX_5yBCRnIP-SUN4rKKG-5" value="QuarterFinal" style="swimlane;fontStyle=0;align=center;verticalAlign=top;childLayout=stackLayout;horizontal=1;startSize=30;horizontalStack=0;resizeParent=1;resizeLast=0;collapsible=1;marginBottom=0;rounded=0;shadow=0;strokeWidth=1;fontSize=17;" parent="1" vertex="1">
          <mxGeometry x="-105" y="-869.5" width="310" height="110" as="geometry">
            <mxRectangle x="130" y="380" width="160" height="26" as="alternateBounds" />
          </mxGeometry>
        </mxCell>
        <mxCell id="5eNANyw-pt9bPJjnBM40-137" value="+ QuarterFinal()" style="text;align=left;verticalAlign=top;spacingLeft=4;spacingRight=4;overflow=hidden;rotatable=0;points=[[0,0.5],[1,0.5]];portConstraint=eastwest;fontSize=13;" parent="xX_5yBCRnIP-SUN4rKKG-5" vertex="1">
          <mxGeometry y="30" width="310" height="26" as="geometry" />
        </mxCell>
        <mxCell id="5eNANyw-pt9bPJjnBM40-138" value="+ QuarterFinal(givenPoints: Integer)" style="text;align=left;verticalAlign=top;spacingLeft=4;spacingRight=4;overflow=hidden;rotatable=0;points=[[0,0.5],[1,0.5]];portConstraint=eastwest;fontSize=13;" parent="xX_5yBCRnIP-SUN4rKKG-5" vertex="1">
          <mxGeometry y="56" width="310" height="26" as="geometry" />
        </mxCell>
        <mxCell id="5eNANyw-pt9bPJjnBM40-139" value="+ generateMatches(players: List&lt;Player&gt;): void" style="text;align=left;verticalAlign=top;spacingLeft=4;spacingRight=4;overflow=hidden;rotatable=0;points=[[0,0.5],[1,0.5]];portConstraint=eastwest;fontSize=13;" parent="xX_5yBCRnIP-SUN4rKKG-5" vertex="1">
          <mxGeometry y="82" width="310" height="26" as="geometry" />
        </mxCell>
        <mxCell id="xX_5yBCRnIP-SUN4rKKG-6" value="SemiFinal" style="swimlane;fontStyle=0;align=center;verticalAlign=top;childLayout=stackLayout;horizontal=1;startSize=30;horizontalStack=0;resizeParent=1;resizeLast=0;collapsible=1;marginBottom=0;rounded=0;shadow=0;strokeWidth=1;fontSize=17;" parent="1" vertex="1">
          <mxGeometry x="-105" y="-734.5" width="310" height="110" as="geometry">
            <mxRectangle x="130" y="380" width="160" height="26" as="alternateBounds" />
          </mxGeometry>
        </mxCell>
        <mxCell id="5eNANyw-pt9bPJjnBM40-143" value="+ SemiFinal()" style="text;align=left;verticalAlign=top;spacingLeft=4;spacingRight=4;overflow=hidden;rotatable=0;points=[[0,0.5],[1,0.5]];portConstraint=eastwest;fontSize=13;" parent="xX_5yBCRnIP-SUN4rKKG-6" vertex="1">
          <mxGeometry y="30" width="310" height="26" as="geometry" />
        </mxCell>
        <mxCell id="5eNANyw-pt9bPJjnBM40-144" value="+ SemiFinal(givenPoints: Integer)" style="text;align=left;verticalAlign=top;spacingLeft=4;spacingRight=4;overflow=hidden;rotatable=0;points=[[0,0.5],[1,0.5]];portConstraint=eastwest;fontSize=13;" parent="xX_5yBCRnIP-SUN4rKKG-6" vertex="1">
          <mxGeometry y="56" width="310" height="26" as="geometry" />
        </mxCell>
        <mxCell id="5eNANyw-pt9bPJjnBM40-145" value="+ generateMatches(players: List&lt;Player&gt;): void" style="text;align=left;verticalAlign=top;spacingLeft=4;spacingRight=4;overflow=hidden;rotatable=0;points=[[0,0.5],[1,0.5]];portConstraint=eastwest;fontSize=13;" parent="xX_5yBCRnIP-SUN4rKKG-6" vertex="1">
          <mxGeometry y="82" width="310" height="26" as="geometry" />
        </mxCell>
        <mxCell id="5eNANyw-pt9bPJjnBM40-175" style="edgeStyle=orthogonalEdgeStyle;rounded=0;orthogonalLoop=1;jettySize=auto;html=1;" parent="1" source="xX_5yBCRnIP-SUN4rKKG-7" target="VGiHOSESfFHdLOJ1oZRl-45" edge="1">
          <mxGeometry relative="1" as="geometry">
            <Array as="points">
              <mxPoint x="-160" y="-545" />
              <mxPoint x="-160" y="-350" />
            </Array>
          </mxGeometry>
        </mxCell>
        <mxCell id="xX_5yBCRnIP-SUN4rKKG-7" value="Final" style="swimlane;fontStyle=0;align=center;verticalAlign=top;childLayout=stackLayout;horizontal=1;startSize=30;horizontalStack=0;resizeParent=1;resizeLast=0;collapsible=1;marginBottom=0;rounded=0;shadow=0;strokeWidth=1;fontSize=17;" parent="1" vertex="1">
          <mxGeometry x="-105" y="-600" width="310" height="110" as="geometry">
            <mxRectangle x="130" y="380" width="160" height="26" as="alternateBounds" />
          </mxGeometry>
        </mxCell>
        <mxCell id="5eNANyw-pt9bPJjnBM40-140" value="+ Final()" style="text;align=left;verticalAlign=top;spacingLeft=4;spacingRight=4;overflow=hidden;rotatable=0;points=[[0,0.5],[1,0.5]];portConstraint=eastwest;fontSize=13;" parent="xX_5yBCRnIP-SUN4rKKG-7" vertex="1">
          <mxGeometry y="30" width="310" height="26" as="geometry" />
        </mxCell>
        <mxCell id="5eNANyw-pt9bPJjnBM40-141" value="+ Final(givenPoints: Integer)" style="text;align=left;verticalAlign=top;spacingLeft=4;spacingRight=4;overflow=hidden;rotatable=0;points=[[0,0.5],[1,0.5]];portConstraint=eastwest;fontSize=13;" parent="xX_5yBCRnIP-SUN4rKKG-7" vertex="1">
          <mxGeometry y="56" width="310" height="26" as="geometry" />
        </mxCell>
        <mxCell id="5eNANyw-pt9bPJjnBM40-142" value="+ generateMatches(players: List&lt;Player&gt;): void" style="text;align=left;verticalAlign=top;spacingLeft=4;spacingRight=4;overflow=hidden;rotatable=0;points=[[0,0.5],[1,0.5]];portConstraint=eastwest;fontSize=13;" parent="xX_5yBCRnIP-SUN4rKKG-7" vertex="1">
          <mxGeometry y="82" width="310" height="26" as="geometry" />
        </mxCell>
        <mxCell id="nEIooyWPOeOvzlB_-CP3-2" style="rounded=0;orthogonalLoop=1;jettySize=auto;html=1;endArrow=block;endFill=0;fontSize=13;edgeStyle=orthogonalEdgeStyle;" parent="1" source="xX_5yBCRnIP-SUN4rKKG-1" target="VGiHOSESfFHdLOJ1oZRl-45" edge="1">
          <mxGeometry relative="1" as="geometry">
            <mxPoint x="30" y="524" as="sourcePoint" />
            <mxPoint x="24" y="379" as="targetPoint" />
            <Array as="points">
              <mxPoint x="-160" y="-950" />
              <mxPoint x="-160" y="-350" />
            </Array>
          </mxGeometry>
        </mxCell>
        <mxCell id="nEIooyWPOeOvzlB_-CP3-6" style="rounded=0;orthogonalLoop=1;jettySize=auto;html=1;endArrow=block;endFill=0;fontSize=13;edgeStyle=orthogonalEdgeStyle;" parent="1" source="xX_5yBCRnIP-SUN4rKKG-6" target="VGiHOSESfFHdLOJ1oZRl-45" edge="1">
          <mxGeometry relative="1" as="geometry">
            <mxPoint x="440.0000000000002" y="738.9836065573772" as="sourcePoint" />
            <mxPoint x="444" y="423.9999999999998" as="targetPoint" />
            <Array as="points">
              <mxPoint x="-160" y="-679" />
              <mxPoint x="-160" y="-350" />
            </Array>
          </mxGeometry>
        </mxCell>
        <mxCell id="nEIooyWPOeOvzlB_-CP3-15" style="rounded=0;orthogonalLoop=1;jettySize=auto;html=1;startArrow=diamondThin;startFill=0;targetPerimeterSpacing=0;strokeWidth=1;endArrow=none;endFill=0;fontSize=13;sourcePerimeterSpacing=0;arcSize=30;jumpSize=6;" parent="1" source="VGiHOSESfFHdLOJ1oZRl-17" target="VGiHOSESfFHdLOJ1oZRl-13" edge="1">
          <mxGeometry relative="1" as="geometry">
            <mxPoint x="-590" y="922" as="sourcePoint" />
            <mxPoint x="-740" y="852" as="targetPoint" />
          </mxGeometry>
        </mxCell>
        <mxCell id="5eNANyw-pt9bPJjnBM40-1" value="&lt;Enum&gt;&#xa;ETournamentStatus" style="swimlane;fontStyle=0;align=center;verticalAlign=top;childLayout=stackLayout;horizontal=1;startSize=50;horizontalStack=0;resizeParent=1;resizeLast=0;collapsible=1;marginBottom=0;rounded=0;shadow=0;strokeWidth=1;fontSize=17;" parent="1" vertex="1">
          <mxGeometry x="-167.5" y="-1270" width="180" height="160" as="geometry">
            <mxRectangle x="550" y="140" width="160" height="26" as="alternateBounds" />
          </mxGeometry>
        </mxCell>
        <mxCell id="5eNANyw-pt9bPJjnBM40-2" value="NOT_STARTED" style="text;align=left;verticalAlign=top;spacingLeft=4;spacingRight=4;overflow=hidden;rotatable=0;points=[[0,0.5],[1,0.5]];portConstraint=eastwest;fontSize=13;" parent="5eNANyw-pt9bPJjnBM40-1" vertex="1">
          <mxGeometry y="50" width="180" height="30" as="geometry" />
        </mxCell>
        <mxCell id="5eNANyw-pt9bPJjnBM40-3" value="IN_PROGRESS" style="text;align=left;verticalAlign=top;spacingLeft=4;spacingRight=4;overflow=hidden;rotatable=0;points=[[0,0.5],[1,0.5]];portConstraint=eastwest;fontSize=13;" parent="5eNANyw-pt9bPJjnBM40-1" vertex="1">
          <mxGeometry y="80" width="180" height="30" as="geometry" />
        </mxCell>
        <mxCell id="5eNANyw-pt9bPJjnBM40-4" value="FINISHED" style="text;align=left;verticalAlign=top;spacingLeft=4;spacingRight=4;overflow=hidden;rotatable=0;points=[[0,0.5],[1,0.5]];portConstraint=eastwest;fontSize=13;" parent="5eNANyw-pt9bPJjnBM40-1" vertex="1">
          <mxGeometry y="110" width="180" height="30" as="geometry" />
        </mxCell>
        <mxCell id="5eNANyw-pt9bPJjnBM40-165" style="rounded=0;orthogonalLoop=1;jettySize=auto;html=1;" parent="1" source="5eNANyw-pt9bPJjnBM40-6" target="VGiHOSESfFHdLOJ1oZRl-29" edge="1">
          <mxGeometry relative="1" as="geometry" />
        </mxCell>
        <mxCell id="5eNANyw-pt9bPJjnBM40-154" style="rounded=0;orthogonalLoop=1;jettySize=auto;html=1;endArrow=open;endFill=0;edgeStyle=orthogonalEdgeStyle;" parent="1" source="5eNANyw-pt9bPJjnBM40-16" target="VGiHOSESfFHdLOJ1oZRl-1" edge="1">
          <mxGeometry relative="1" as="geometry">
            <Array as="points">
              <mxPoint x="830" y="-1080" />
              <mxPoint x="830" y="-1080" />
            </Array>
          </mxGeometry>
        </mxCell>
        <mxCell id="5eNANyw-pt9bPJjnBM40-16" value="TournamentPlayerService" style="swimlane;fontStyle=0;align=center;verticalAlign=top;childLayout=stackLayout;horizontal=1;startSize=40;horizontalStack=0;resizeParent=1;resizeLast=0;collapsible=1;marginBottom=0;rounded=0;shadow=0;strokeWidth=1;fontSize=17;" parent="1" vertex="1">
          <mxGeometry x="867" y="-1120" width="360" height="164" as="geometry">
            <mxRectangle x="230" y="140" width="160" height="26" as="alternateBounds" />
          </mxGeometry>
        </mxCell>
        <mxCell id="5eNANyw-pt9bPJjnBM40-17" value="- tournament: Tournament" style="text;align=left;verticalAlign=top;spacingLeft=4;spacingRight=4;overflow=hidden;rotatable=0;points=[[0,0.5],[1,0.5]];portConstraint=eastwest;rounded=0;shadow=0;html=0;fontSize=13;" parent="5eNANyw-pt9bPJjnBM40-16" vertex="1">
          <mxGeometry y="40" width="360" height="30" as="geometry" />
        </mxCell>
        <mxCell id="5eNANyw-pt9bPJjnBM40-18" value="" style="endArrow=none;html=1;rounded=0;exitX=-0.001;exitY=1.017;exitDx=0;exitDy=0;fontSize=13;entryX=1.006;entryY=0.996;entryDx=0;entryDy=0;entryPerimeter=0;exitPerimeter=0;" parent="5eNANyw-pt9bPJjnBM40-16" source="5eNANyw-pt9bPJjnBM40-17" target="5eNANyw-pt9bPJjnBM40-17" edge="1">
          <mxGeometry width="50" height="50" relative="1" as="geometry">
            <mxPoint y="70" as="sourcePoint" />
            <mxPoint x="240" y="70" as="targetPoint" />
          </mxGeometry>
        </mxCell>
        <mxCell id="5eNANyw-pt9bPJjnBM40-19" value="+ TournamentPlayerService(tournament: Tournament)" style="text;align=left;verticalAlign=top;spacingLeft=4;spacingRight=4;overflow=hidden;rotatable=0;points=[[0,0.5],[1,0.5]];portConstraint=eastwest;rounded=0;shadow=0;html=0;fontSize=13;" parent="5eNANyw-pt9bPJjnBM40-16" vertex="1">
          <mxGeometry y="70" width="360" height="26" as="geometry" />
        </mxCell>
        <mxCell id="5eNANyw-pt9bPJjnBM40-20" value="+ unsubscribePlayer(idPlayer: Integer): void" style="text;align=left;verticalAlign=top;spacingLeft=4;spacingRight=4;overflow=hidden;rotatable=0;points=[[0,0.5],[1,0.5]];portConstraint=eastwest;rounded=0;shadow=0;html=0;fontSize=13;" parent="5eNANyw-pt9bPJjnBM40-16" vertex="1">
          <mxGeometry y="96" width="360" height="28" as="geometry" />
        </mxCell>
        <mxCell id="5eNANyw-pt9bPJjnBM40-102" value="+ registerPlayer(player: Player): void" style="text;align=left;verticalAlign=top;spacingLeft=4;spacingRight=4;overflow=hidden;rotatable=0;points=[[0,0.5],[1,0.5]];portConstraint=eastwest;rounded=0;shadow=0;html=0;fontSize=13;" parent="5eNANyw-pt9bPJjnBM40-16" vertex="1">
          <mxGeometry y="124" width="360" height="26" as="geometry" />
        </mxCell>
        <mxCell id="5eNANyw-pt9bPJjnBM40-169" style="edgeStyle=orthogonalEdgeStyle;rounded=0;orthogonalLoop=1;jettySize=auto;html=1;" parent="1" source="5eNANyw-pt9bPJjnBM40-26" target="VGiHOSESfFHdLOJ1oZRl-1" edge="1">
          <mxGeometry relative="1" as="geometry">
            <Array as="points">
              <mxPoint x="1840" y="-130" />
              <mxPoint x="1840" y="-1250" />
            </Array>
          </mxGeometry>
        </mxCell>
        <mxCell id="5eNANyw-pt9bPJjnBM40-26" value="TournamentStatusService" style="swimlane;fontStyle=0;align=center;verticalAlign=top;childLayout=stackLayout;horizontal=1;startSize=40;horizontalStack=0;resizeParent=1;resizeLast=0;collapsible=1;marginBottom=0;rounded=0;shadow=0;strokeWidth=1;fontSize=17;movable=1;resizable=1;rotatable=1;deletable=1;editable=1;locked=0;connectable=1;" parent="1" vertex="1">
          <mxGeometry x="1380" y="-320" width="360" height="356" as="geometry">
            <mxRectangle x="230" y="140" width="160" height="26" as="alternateBounds" />
          </mxGeometry>
        </mxCell>
        <mxCell id="5eNANyw-pt9bPJjnBM40-79" value="- tournament:Tournament" style="text;align=left;verticalAlign=top;spacingLeft=4;spacingRight=4;overflow=hidden;rotatable=0;points=[[0,0.5],[1,0.5]];portConstraint=eastwest;rounded=0;shadow=0;html=0;fontSize=13;" parent="5eNANyw-pt9bPJjnBM40-26" vertex="1">
          <mxGeometry y="40" width="360" height="30" as="geometry" />
        </mxCell>
        <mxCell id="5eNANyw-pt9bPJjnBM40-80" value="- roundService:RoundService" style="text;align=left;verticalAlign=top;spacingLeft=4;spacingRight=4;overflow=hidden;rotatable=0;points=[[0,0.5],[1,0.5]];portConstraint=eastwest;rounded=0;shadow=0;html=0;fontSize=13;" parent="5eNANyw-pt9bPJjnBM40-26" vertex="1">
          <mxGeometry y="70" width="360" height="30" as="geometry" />
        </mxCell>
        <mxCell id="5eNANyw-pt9bPJjnBM40-27" value="- matchService:MatchService" style="text;align=left;verticalAlign=top;spacingLeft=4;spacingRight=4;overflow=hidden;rotatable=0;points=[[0,0.5],[1,0.5]];portConstraint=eastwest;rounded=0;shadow=0;html=0;fontSize=13;" parent="5eNANyw-pt9bPJjnBM40-26" vertex="1">
          <mxGeometry y="100" width="360" height="30" as="geometry" />
        </mxCell>
        <mxCell id="5eNANyw-pt9bPJjnBM40-29" value="+ TournamentStatusService(tournament:Tournament, &#xa;roundService:RoundService , matchService:MatchService)" style="text;align=left;verticalAlign=top;spacingLeft=4;spacingRight=4;overflow=hidden;rotatable=0;points=[[0,0.5],[1,0.5]];portConstraint=eastwest;rounded=0;shadow=0;html=0;fontSize=13;" parent="5eNANyw-pt9bPJjnBM40-26" vertex="1">
          <mxGeometry y="130" width="360" height="40" as="geometry" />
        </mxCell>
        <mxCell id="5eNANyw-pt9bPJjnBM40-30" value="+ advanceTournament(): void " style="text;align=left;verticalAlign=top;spacingLeft=4;spacingRight=4;overflow=hidden;rotatable=0;points=[[0,0.5],[1,0.5]];portConstraint=eastwest;rounded=0;shadow=0;html=0;fontSize=13;" parent="5eNANyw-pt9bPJjnBM40-26" vertex="1">
          <mxGeometry y="170" width="360" height="28" as="geometry" />
        </mxCell>
        <mxCell id="5eNANyw-pt9bPJjnBM40-31" value="+ getTournamentWinner(): Player" style="text;align=left;verticalAlign=top;spacingLeft=4;spacingRight=4;overflow=hidden;rotatable=0;points=[[0,0.5],[1,0.5]];portConstraint=eastwest;fontSize=13;" parent="5eNANyw-pt9bPJjnBM40-26" vertex="1">
          <mxGeometry y="198" width="360" height="24" as="geometry" />
        </mxCell>
        <mxCell id="5eNANyw-pt9bPJjnBM40-32" value="- startTournament(): void" style="text;align=left;verticalAlign=top;spacingLeft=4;spacingRight=4;overflow=hidden;rotatable=0;points=[[0,0.5],[1,0.5]];portConstraint=eastwest;fontSize=13;" parent="5eNANyw-pt9bPJjnBM40-26" vertex="1">
          <mxGeometry y="222" width="360" height="24" as="geometry" />
        </mxCell>
        <mxCell id="5eNANyw-pt9bPJjnBM40-33" value="- advanceCurrentRound(): void" style="text;align=left;verticalAlign=top;spacingLeft=4;spacingRight=4;overflow=hidden;rotatable=0;points=[[0,0.5],[1,0.5]];portConstraint=eastwest;fontSize=13;" parent="5eNANyw-pt9bPJjnBM40-26" vertex="1">
          <mxGeometry y="246" width="360" height="26" as="geometry" />
        </mxCell>
        <mxCell id="5eNANyw-pt9bPJjnBM40-34" value="- isTournamentFinished(): boolean" style="text;align=left;verticalAlign=top;spacingLeft=4;spacingRight=4;overflow=hidden;rotatable=0;points=[[0,0.5],[1,0.5]];portConstraint=eastwest;fontSize=13;" parent="5eNANyw-pt9bPJjnBM40-26" vertex="1">
          <mxGeometry y="272" width="360" height="26" as="geometry" />
        </mxCell>
        <mxCell id="5eNANyw-pt9bPJjnBM40-35" value="- updateTournamentStatus(): void" style="text;align=left;verticalAlign=top;spacingLeft=4;spacingRight=4;overflow=hidden;rotatable=0;points=[[0,0.5],[1,0.5]];portConstraint=eastwest;fontSize=13;" parent="5eNANyw-pt9bPJjnBM40-26" vertex="1">
          <mxGeometry y="298" width="360" height="24" as="geometry" />
        </mxCell>
        <mxCell id="5eNANyw-pt9bPJjnBM40-81" value="- isFinalRoundComplete(): boolean" style="text;align=left;verticalAlign=top;spacingLeft=4;spacingRight=4;overflow=hidden;rotatable=0;points=[[0,0.5],[1,0.5]];portConstraint=eastwest;fontSize=13;" parent="5eNANyw-pt9bPJjnBM40-26" vertex="1">
          <mxGeometry y="322" width="360" height="24" as="geometry" />
        </mxCell>
        <mxCell id="5eNANyw-pt9bPJjnBM40-82" value="" style="edgeStyle=none;orthogonalLoop=1;jettySize=auto;html=1;rounded=0;exitX=0.001;exitY=1.007;exitDx=0;exitDy=0;exitPerimeter=0;entryX=1.004;entryY=1.007;entryDx=0;entryDy=0;entryPerimeter=0;endArrow=none;endFill=0;" parent="5eNANyw-pt9bPJjnBM40-26" source="5eNANyw-pt9bPJjnBM40-27" target="5eNANyw-pt9bPJjnBM40-27" edge="1">
          <mxGeometry width="80" relative="1" as="geometry">
            <mxPoint x="180" y="80" as="sourcePoint" />
            <mxPoint x="260" y="80" as="targetPoint" />
            <Array as="points" />
          </mxGeometry>
        </mxCell>
        <mxCell id="5eNANyw-pt9bPJjnBM40-113" value="SetScore" style="swimlane;fontStyle=0;align=center;verticalAlign=top;childLayout=stackLayout;horizontal=1;startSize=35;horizontalStack=0;resizeParent=1;resizeLast=0;collapsible=1;marginBottom=0;rounded=0;shadow=0;strokeWidth=1;fontSize=17;" parent="1" vertex="1">
          <mxGeometry x="430" y="170" width="310" height="210" as="geometry">
            <mxRectangle x="130" y="380" width="160" height="26" as="alternateBounds" />
          </mxGeometry>
        </mxCell>
        <mxCell id="5eNANyw-pt9bPJjnBM40-121" value="- playerOneScore: Integer" style="text;align=left;verticalAlign=top;spacingLeft=4;spacingRight=4;overflow=hidden;rotatable=0;points=[[0,0.5],[1,0.5]];portConstraint=eastwest;fontSize=13;" parent="5eNANyw-pt9bPJjnBM40-113" vertex="1">
          <mxGeometry y="35" width="310" height="35" as="geometry" />
        </mxCell>
        <mxCell id="5eNANyw-pt9bPJjnBM40-114" value="- playerTwoScore: Integer" style="text;align=left;verticalAlign=top;spacingLeft=4;spacingRight=4;overflow=hidden;rotatable=0;points=[[0,0.5],[1,0.5]];portConstraint=eastwest;fontSize=13;" parent="5eNANyw-pt9bPJjnBM40-113" vertex="1">
          <mxGeometry y="70" width="310" height="35" as="geometry" />
        </mxCell>
        <mxCell id="5eNANyw-pt9bPJjnBM40-115" value="" style="edgeStyle=none;orthogonalLoop=1;jettySize=auto;html=1;rounded=0;exitX=0.001;exitY=1.005;exitDx=0;exitDy=0;endArrow=none;endFill=0;entryX=1;entryY=1;entryDx=0;entryDy=0;entryPerimeter=0;exitPerimeter=0;" parent="5eNANyw-pt9bPJjnBM40-113" source="5eNANyw-pt9bPJjnBM40-114" target="5eNANyw-pt9bPJjnBM40-114" edge="1">
          <mxGeometry width="80" relative="1" as="geometry">
            <mxPoint y="70.00000000000023" as="sourcePoint" />
            <mxPoint x="175" y="70.00000000000023" as="targetPoint" />
            <Array as="points" />
          </mxGeometry>
        </mxCell>
        <mxCell id="5eNANyw-pt9bPJjnBM40-116" value="+ SetScore(playerOneScore: Integer,&#xa;   playerTwoScore: Integer)" style="text;align=left;verticalAlign=top;spacingLeft=4;spacingRight=4;overflow=hidden;rotatable=0;points=[[0,0.5],[1,0.5]];portConstraint=eastwest;fontSize=13;" parent="5eNANyw-pt9bPJjnBM40-113" vertex="1">
          <mxGeometry y="105" width="310" height="45" as="geometry" />
        </mxCell>
        <mxCell id="5eNANyw-pt9bPJjnBM40-124" value="+ validateFullScore: boolean" style="text;align=left;verticalAlign=top;spacingLeft=4;spacingRight=4;overflow=hidden;rotatable=0;points=[[0,0.5],[1,0.5]];portConstraint=eastwest;fontSize=13;" parent="5eNANyw-pt9bPJjnBM40-113" vertex="1">
          <mxGeometry y="150" width="310" height="30" as="geometry" />
        </mxCell>
        <mxCell id="5eNANyw-pt9bPJjnBM40-123" value="+ validateFullScore: boolean" style="text;align=left;verticalAlign=top;spacingLeft=4;spacingRight=4;overflow=hidden;rotatable=0;points=[[0,0.5],[1,0.5]];portConstraint=eastwest;fontSize=13;" parent="5eNANyw-pt9bPJjnBM40-113" vertex="1">
          <mxGeometry y="180" width="310" height="30" as="geometry" />
        </mxCell>
        <mxCell id="5eNANyw-pt9bPJjnBM40-147" style="rounded=0;orthogonalLoop=1;jettySize=auto;html=1;endArrow=open;endFill=0;edgeStyle=orthogonalEdgeStyle;" parent="1" source="VGiHOSESfFHdLOJ1oZRl-25" target="5eNANyw-pt9bPJjnBM40-6" edge="1">
          <mxGeometry relative="1" as="geometry">
            <Array as="points">
              <mxPoint x="1330" y="-495" />
              <mxPoint x="1330" y="-568" />
            </Array>
          </mxGeometry>
        </mxCell>
        <mxCell id="5eNANyw-pt9bPJjnBM40-148" style="rounded=0;orthogonalLoop=1;jettySize=auto;html=1;endArrow=open;endFill=0;edgeStyle=orthogonalEdgeStyle;" parent="1" source="VGiHOSESfFHdLOJ1oZRl-1" target="5eNANyw-pt9bPJjnBM40-1" edge="1">
          <mxGeometry relative="1" as="geometry">
            <Array as="points">
              <mxPoint x="-78" y="-1070" />
            </Array>
          </mxGeometry>
        </mxCell>
        <mxCell id="5eNANyw-pt9bPJjnBM40-149" style="rounded=0;orthogonalLoop=1;jettySize=auto;html=1;endArrow=none;endFill=0;startArrow=diamondThin;startFill=1;edgeStyle=orthogonalEdgeStyle;" parent="1" source="VGiHOSESfFHdLOJ1oZRl-9" target="5eNANyw-pt9bPJjnBM40-113" edge="1">
          <mxGeometry relative="1" as="geometry">
            <Array as="points">
              <mxPoint x="320" y="260" />
              <mxPoint x="320" y="260" />
            </Array>
          </mxGeometry>
        </mxCell>
        <mxCell id="5eNANyw-pt9bPJjnBM40-164" style="rounded=0;orthogonalLoop=1;jettySize=auto;html=1;edgeStyle=orthogonalEdgeStyle;" parent="1" source="5eNANyw-pt9bPJjnBM40-6" target="VGiHOSESfFHdLOJ1oZRl-1" edge="1">
          <mxGeometry relative="1" as="geometry">
            <Array as="points">
              <mxPoint x="1800" y="-590" />
              <mxPoint x="1800" y="-1200" />
            </Array>
          </mxGeometry>
        </mxCell>
        <mxCell id="5eNANyw-pt9bPJjnBM40-166" style="rounded=0;orthogonalLoop=1;jettySize=auto;html=1;" parent="1" source="5eNANyw-pt9bPJjnBM40-26" target="5eNANyw-pt9bPJjnBM40-6" edge="1">
          <mxGeometry relative="1" as="geometry" />
        </mxCell>
        <mxCell id="5eNANyw-pt9bPJjnBM40-168" value="" style="rounded=0;orthogonalLoop=1;jettySize=auto;html=1;endArrow=open;endFill=0;edgeStyle=orthogonalEdgeStyle;" parent="1" source="5eNANyw-pt9bPJjnBM40-26" target="5eNANyw-pt9bPJjnBM40-6" edge="1">
          <mxGeometry relative="1" as="geometry">
            <mxPoint x="1210" y="-1333" as="sourcePoint" />
            <mxPoint x="155" y="-752" as="targetPoint" />
            <Array as="points">
              <mxPoint x="1800" y="-170" />
              <mxPoint x="1800" y="-550" />
            </Array>
          </mxGeometry>
        </mxCell>
        <mxCell id="5eNANyw-pt9bPJjnBM40-6" value="RoundService" style="swimlane;fontStyle=0;align=center;verticalAlign=top;childLayout=stackLayout;horizontal=1;startSize=40;horizontalStack=0;resizeParent=1;resizeLast=0;collapsible=1;marginBottom=0;rounded=0;shadow=0;strokeWidth=1;fontSize=17;movable=1;resizable=1;rotatable=1;deletable=1;editable=1;locked=0;connectable=1;" parent="1" vertex="1">
          <mxGeometry x="1380" y="-720" width="360" height="304" as="geometry">
            <mxRectangle x="230" y="140" width="160" height="26" as="alternateBounds" />
          </mxGeometry>
        </mxCell>
        <mxCell id="5eNANyw-pt9bPJjnBM40-83" value="- tournament: Tournament" style="text;align=left;verticalAlign=top;spacingLeft=4;spacingRight=4;overflow=hidden;rotatable=0;points=[[0,0.5],[1,0.5]];portConstraint=eastwest;rounded=0;shadow=0;html=0;fontSize=13;" parent="5eNANyw-pt9bPJjnBM40-6" vertex="1">
          <mxGeometry y="40" width="360" height="30" as="geometry" />
        </mxCell>
        <mxCell id="5eNANyw-pt9bPJjnBM40-7" value="- matchService: MatchService" style="text;align=left;verticalAlign=top;spacingLeft=4;spacingRight=4;overflow=hidden;rotatable=0;points=[[0,0.5],[1,0.5]];portConstraint=eastwest;rounded=0;shadow=0;html=0;fontSize=13;" parent="5eNANyw-pt9bPJjnBM40-6" vertex="1">
          <mxGeometry y="70" width="360" height="30" as="geometry" />
        </mxCell>
        <mxCell id="5eNANyw-pt9bPJjnBM40-8" value="" style="endArrow=none;html=1;rounded=0;exitX=-0.001;exitY=1.017;exitDx=0;exitDy=0;fontSize=13;entryX=1.006;entryY=0.996;entryDx=0;entryDy=0;entryPerimeter=0;exitPerimeter=0;" parent="5eNANyw-pt9bPJjnBM40-6" source="5eNANyw-pt9bPJjnBM40-7" target="5eNANyw-pt9bPJjnBM40-7" edge="1">
          <mxGeometry width="50" height="50" relative="1" as="geometry">
            <mxPoint y="70" as="sourcePoint" />
            <mxPoint x="240" y="70" as="targetPoint" />
          </mxGeometry>
        </mxCell>
        <mxCell id="5eNANyw-pt9bPJjnBM40-9" value="+ RoundService(tournament: Tournament,&#xa;   matchService: MatchService)" style="text;align=left;verticalAlign=top;spacingLeft=4;spacingRight=4;overflow=hidden;rotatable=0;points=[[0,0.5],[1,0.5]];portConstraint=eastwest;rounded=0;shadow=0;html=0;fontSize=13;" parent="5eNANyw-pt9bPJjnBM40-6" vertex="1">
          <mxGeometry y="100" width="360" height="40" as="geometry" />
        </mxCell>
        <mxCell id="5eNANyw-pt9bPJjnBM40-10" value="+ isCurrentRoundComplete(): boolean" style="text;align=left;verticalAlign=top;spacingLeft=4;spacingRight=4;overflow=hidden;rotatable=0;points=[[0,0.5],[1,0.5]];portConstraint=eastwest;rounded=0;shadow=0;html=0;fontSize=13;" parent="5eNANyw-pt9bPJjnBM40-6" vertex="1">
          <mxGeometry y="140" width="360" height="28" as="geometry" />
        </mxCell>
        <mxCell id="5eNANyw-pt9bPJjnBM40-11" value="+ getPlayersStillCompeting(): List&lt;Player&gt;" style="text;align=left;verticalAlign=top;spacingLeft=4;spacingRight=4;overflow=hidden;rotatable=0;points=[[0,0.5],[1,0.5]];portConstraint=eastwest;fontSize=13;" parent="5eNANyw-pt9bPJjnBM40-6" vertex="1">
          <mxGeometry y="168" width="360" height="24" as="geometry" />
        </mxCell>
        <mxCell id="5eNANyw-pt9bPJjnBM40-12" value="+ nextRound(): void" style="text;align=left;verticalAlign=top;spacingLeft=4;spacingRight=4;overflow=hidden;rotatable=0;points=[[0,0.5],[1,0.5]];portConstraint=eastwest;fontSize=13;" parent="5eNANyw-pt9bPJjnBM40-6" vertex="1">
          <mxGeometry y="192" width="360" height="24" as="geometry" />
        </mxCell>
        <mxCell id="5eNANyw-pt9bPJjnBM40-13" value="+ generateNextRound(): Round" style="text;align=left;verticalAlign=top;spacingLeft=4;spacingRight=4;overflow=hidden;rotatable=0;points=[[0,0.5],[1,0.5]];portConstraint=eastwest;fontSize=13;" parent="5eNANyw-pt9bPJjnBM40-6" vertex="1">
          <mxGeometry y="216" width="360" height="26" as="geometry" />
        </mxCell>
        <mxCell id="5eNANyw-pt9bPJjnBM40-14" value="+ getCurrentRound(): Round" style="text;align=left;verticalAlign=top;spacingLeft=4;spacingRight=4;overflow=hidden;rotatable=0;points=[[0,0.5],[1,0.5]];portConstraint=eastwest;fontSize=13;" parent="5eNANyw-pt9bPJjnBM40-6" vertex="1">
          <mxGeometry y="242" width="360" height="26" as="geometry" />
        </mxCell>
        <mxCell id="5eNANyw-pt9bPJjnBM40-15" value="+ getFinalMatch(): Match" style="text;align=left;verticalAlign=top;spacingLeft=4;spacingRight=4;overflow=hidden;rotatable=0;points=[[0,0.5],[1,0.5]];portConstraint=eastwest;fontSize=13;" parent="5eNANyw-pt9bPJjnBM40-6" vertex="1">
          <mxGeometry y="268" width="360" height="24" as="geometry" />
        </mxCell>
      </root>
    </mxGraphModel>
  </diagram>
</mxfile>
